<svg xmlns="http://www.w3.org/2000/svg" viewBox="0 0 503.607 503.607" fill="currentColor">
  <path fill="currentColor" d="M282.02 363.436c-6.715 1.679-16.787 5.036-29.377 5.036-22.662 0-44.485-5.875-62.951-18.466-18.466-12.59-32.734-28.538-42.807-48.682L39.449 113.311l-7.554 12.59C10.911 163.672 0 205.639 0 251.803c0 62.951 20.984 118.348 61.272 165.351 40.289 46.164 92.328 74.702 152.761 83.934l5.875.839 84.774-145.207z" />
  <path fill="currentColor" d="M138.492 220.748c5.875-25.18 20.144-46.164 41.967-62.951 20.144-15.948 43.646-23.502 71.344-23.502h223.266l-7.554-12.59c-20.984-36.092-50.361-64.63-90.649-88.131C339.095 10.911 297.128 0 251.803 0c-38.61 0-76.38 8.393-109.954 25.18-36.092 17.626-67.148 42.807-88.97 72.184l-3.357 4.197 83.934 137.652z" />
  <path fill="currentColor" d="M485.141 156.957l-2.518-5.036h-167.03l14.269 14.269c25.18 25.18 38.61 55.397 38.61 85.613 0 24.341-6.715 47.003-20.984 67.148L240.052 503.607h14.269c68.826-.839 127.58-26.02 176.262-74.702s73.023-108.275 73.023-177.102c.001-25.18-3.357-61.272-18.465-94.846z" />
  <path fill="currentColor" d="M151.082 251.803c0 54.557 46.164 100.721 100.721 100.721s100.721-46.164 100.721-100.721-46.164-100.721-100.721-100.721-100.721 46.164-100.721 100.721z" />
</svg>
