<svg xmlns="http://www.w3.org/2000/svg" width="2829.333" height="2829.333">
  <!-- Credit: <a href="https://www.magnific.com/free-vector/tube-test-kawaii-character_137585889.htm">Image by gstudioimagen on Magnific</a> -->
  <path
    d="M17516.2 8373c-180.6 1125.8-687.8 2242-1420.4 3171.3l-.5.5c-670.3 850.3-1529.7 1543.5-2499.4 1943.6-326.2 134.7-663.9 238.9-1008.6 312.1-419.2 1114.9-538.4 2341.8-347.4 3517.2 10.5 65.5 22 130.7 34.5 195.7 2.6-.4 5.2-.8 7.8-1.3 199.7-33.2 441.2-25.7 557.8 187.5 122.3 223.3 133.7 629.1.2 848.8-103.5 170.3-298.4 239.2-480 288-1126.8 303.3-2380.65 303.2-3507.11 0-181.61-48.8-376.56-117.7-480.02-288-133.52-219.7-122.1-625.5.12-848.8 116.66-213.2 357.37-214.5 557.81-187.5 2.54.4 5.16.7 7.76 1.1 95.44-496.4 135.18-1003.6 119.79-1509.4-22.94-751.4-168.15-1499.5-432.64-2203.1-344.71-73.5-682.52-177.6-1008.6-312.3-1295.23-534.4-2393.32-1592-3107.28-2847.8-374.28-656.2-643.51-1366.8-780.97-2084.9-11.7-60.8-22.41-121.7-32.08-182.7-262.15-1631.4 339.39-3368.3 1525.94-4518.1 1381.55-1338.4 3402.99-1734.3 5264.58-1688.5 1817.4 44.2 4143.6 371.4 5502.8 1688.5 1186.5 1149.8 1788.1 2886.7 1525.9 4518.1"
    style="fill:#ceeeeb;fill-opacity:1;fill-rule:nonzero;stroke:none"
    transform="matrix(.13333 0 0 -.13333 0 2829.333)" />
  <path
    d="M15750.7 7499.8c-99.6 565.8-334.3 1127.4-671.8 1636.9-178.9-97.8-351.3-204.7-515.5-315.4-708.2-476.8-1391.1-1042.1-2248.3-1231.1-660.2-145.7-1358.3-48.9-2011.2 122.6-652.92 172-1280.46 417.8-1936.58 578.7s-1360.68 233.3-2011.74 54.4c-285.41-78.8-558.37-213.9-784.28-392.4-45.65-150.3-82.1-301.5-108.82-453.7-116.2-655.6-5.09-1336.7 290.47-1943.9 201.02-414.5 487.38-794.5 845.63-1108.9 1028.23-904.7 2533.22-1172.1 3919.22-1141.2 1353.3 29.9 3084.7 251.3 4096.8 1141.2 725.3 637.2 1156.9 1541.8 1179.9 2454.8 5.5 200.1-8.8 400.2-43.8 598"
    style="fill:#c6a8da;fill-opacity:1;fill-rule:nonzero;stroke:none"
    transform="matrix(.13333 0 0 -.13333 0 2829.333)" />
  <path
    d="M13087.9 11135.4c-470.1 0-851.3-381.1-851.3-851.3 0-470.1 381.2-851.2 851.3-851.2 105.3 0 206.1 19.1 299.1 54 248.2 93.2 441.4 298.9 517.2 555 22.8 76.8 35 158.1 35 242.2 0 470.2-381.1 851.3-851.3 851.3M7922.26 11135.4c-470.16 0-851.28-381.1-851.28-851.3 0-84.1 12.21-165.4 34.95-242.2 75.88-256.1 269.02-461.8 517.22-555 93.06-34.9 193.85-54 299.11-54 470.13 0 851.25 381.1 851.25 851.2 0 470.2-381.12 851.3-851.25 851.3M7406.81 11412.1c220.34 22.8 1134.5 497 609.67 707.6-266.79 107.1-1020.92-345.3-816.37-646.5 42.46-62.6 131.48-68.9 206.7-61.1M13603.3 11412.1c75.3-7.8 164.3-1.5 206.8 61.1 204.5 301.2-549.6 753.6-816.4 646.5-524.9-210.6 389.3-684.8 609.6-707.6M11089.9 10646.7c123.8-165-25.1-362.9-215.5-345.9-164.7 14.7-264 170.2-325.8 306.7-9.6 21.3-26.5 28.2-43.3 25.8-16.8 2.7-33.9-4.1-43.8-25.8-62.2-137.4-161.1-290.5-325.7-306.7-190.92-18.9-338.62 181.8-215.6 345.9 27.14 36.2-31.49 79.6-62.02 47.8-165.48-172.5-69.3-445.5 154.52-506.9 208-57.1 401.5 58.5 492.4 234.8 90.9-176.3 284.3-291.9 492.4-234.8 223.8 61.4 320 334.5 154.5 506.9-30.2 31.5-89.5-11.3-62.1-47.8"
    style="fill:#7f553f;fill-opacity:1;fill-rule:nonzero;stroke:none"
    transform="matrix(.13333 0 0 -.13333 0 2829.333)" />
  <path
    d="M12239.9 17317.7c10.5 65.5 22 130.7 34.5 195.7-1132.4 186.5-2782.68 73.5-3335.64-.2 95.44-496.4 135.18-1003.6 119.79-1509.4 285.58 241.4 594.59 455 922.26 635.1 694.29 382 1469.49 614.3 2259.09 678.8M17395.8 8944.7c257.4-1674.6-333.5-3457.9-1499.3-4638-1335.7-1351.7-3620.9-1687.4-5406.8-1733.2-1829.15-46.9-3815.43 359.6-5172.49 1733.2-1166.3 1180.1-1757.17 2963.4-1499.82 4638-33.76-129.2-63.32-259-88.33-389-11.7-60.8-22.41-121.7-32.08-182.7-262.15-1631.4 339.39-3368.3 1525.94-4518.1 1381.55-1338.4 3402.99-1734.3 5264.58-1688.5 1817.4 44.2 4143.6 371.4 5502.8 1688.5 1186.5 1149.8 1788.1 2886.7 1525.9 4518.1-30.9 191.3-70.8 382-120.4 571.7M12387.5 13839c-73 0-146-2.1-219-5.8-76.7-3.8-152.9-10.2-229.1-18.2-53.3-5.3-142.3-35.6-193.4-24.5 1608-363.9 3116.9-1151.3 4349.3-2245.7-670.3 850.3-1529.7 1543.5-2499.4 1943.6-326.2 134.7-663.9 238.9-1008.6 312.1-65.9 14-131.9 26.8-198.2 38.5zM9752.24 13790.5c-51.13-11.1-140.12 19.2-192.86 24.5-76.2 8-152.91 14.4-229.11 18.2-147.58 8-295.18 8.5-442.22 2.1-43.17-2.1-86.85-4.8-130.01-8-44.15-8.4-88.19-17.3-132.13-26.6-344.71-73.5-682.52-177.6-1008.6-312.3-1295.23-534.4-2393.32-1592-3107.28-2847.8 1355.98 1565.9 3220.78 2692.3 5242.21 3149.9"
    style="fill:#b9e7e6;fill-opacity:1;fill-rule:nonzero;stroke:none"
    transform="matrix(.13333 0 0 -.13333 0 2829.333)" />
  <path
    d="M13387 9486.9c39-72.3 101.5-137.4 188.1-185 133.7-73.6 309.9-91.1 452.7-32.8 91.3 37.2 170 109.6 204.6 201.9 93.6 250.2-94.2 495.1-328.2 570.9-75.8-256.1-269-461.8-517.2-555"
    style="fill:#f68798;fill-opacity:1;fill-rule:nonzero;stroke:none"
    transform="matrix(.13333 0 0 -.13333 0 2829.333)" />
  <path
    d="M12811.6 10170.5c183.6 0 332.5 148.9 332.5 332.5 0 183.7-148.9 332.6-332.5 332.6-183.7 0-332.5-148.9-332.5-332.6 0-183.6 148.8-332.5 332.5-332.5M13459.6 9745.2c91.5 0 165.7 74.2 165.7 165.7s-74.2 165.7-165.7 165.7-165.7-74.2-165.7-165.7 74.2-165.7 165.7-165.7M13206.5 9607.5c43.2 0 78.2 35.1 78.2 78.2 0 43.2-35 78.1-78.2 78.1-43.1 0-78.1-34.9-78.1-78.1 0-43.1 35-78.2 78.1-78.2"
    style="fill:#fff;fill-opacity:1;fill-rule:nonzero;stroke:none" transform="matrix(.13333 0 0 -.13333 0 2829.333)" />
  <path
    d="M6982.35 9269.1c142.85-58.3 319.05-40.8 452.77 32.8 86.55 47.6 149.02 112.7 188.03 185-248.2 93.2-441.34 298.9-517.22 555-233.93-75.8-421.8-320.7-328.13-570.9 34.57-92.3 113.27-164.7 204.55-201.9"
    style="fill:#f68798;fill-opacity:1;fill-rule:nonzero;stroke:none"
    transform="matrix(.13333 0 0 -.13333 0 2829.333)" />
  <path
    d="M8198.57 10170.5c183.66 0 332.53 148.9 332.53 332.5 0 183.7-148.87 332.6-332.53 332.6-183.62 0-332.49-148.9-332.49-332.6 0-183.6 148.87-332.5 332.49-332.5M7550.56 9745.2c91.52 0 165.7 74.2 165.7 165.7s-74.18 165.7-165.7 165.7c-91.5 0-165.7-74.2-165.7-165.7s74.2-165.7 165.7-165.7M7803.64 9607.5c43.15 0 78.15 35.1 78.15 78.2 0 43.2-35 78.1-78.15 78.1-43.16 0-78.15-34.9-78.15-78.1 0-43.1 34.99-78.2 78.15-78.2"
    style="fill:#fff;fill-opacity:1;fill-rule:nonzero;stroke:none" transform="matrix(.13333 0 0 -.13333 0 2829.333)" />
  <path
    d="M14450.4 6649.1c-538.4 188.4-1147.3-137.3-1371.2-638.2-53.6-120-85.2-250-88.4-385.4-7.8-334.2 159.3-659 423.3-858.7-734.6-402.9-1540.4-674.2-2372-781.9-276.3-35.6-554.4-53.1-832.4-53.1 307.7 345.7 393.8 909.6 96.6 1285.6-348.72 441.3-1027.75 491.7-1478.73 192.9-108.02-71.6-202.95-163.2-277.13-274.2-190.72-285.5-217.86-662.8-86.07-976.3-991.41 260.6-1927.06 737.9-2711.42 1396.1 201.02-414.5 487.38-794.5 845.63-1108.9 1028.23-904.7 2533.22-1172.1 3919.22-1141.2 1353.3 29.9 3084.7 251.3 4096.8 1141.2 725.3 637.2 1156.9 1541.8 1179.9 2454.8-225.5-325.7-480.2-631.1-759-912.9-84.8 296.2-287.3 555.9-585.1 660.2M14970.7 7330.6c102.5 75.8 141.9 239.9 59.4 344.3-84.4 106.9-248.8 119.1-358 46.7-26.2-17.3-49.2-39.5-67.2-66.4-56.5-84.6-53.7-202.6 6.5-284.7 88.6-121.1 245.6-124.1 359.3-39.9M12163.1 6805.6c34.7 25.7 48 81.2 20.1 116.4-28.5 36.2-84.1 40.3-121 15.8a79.4 79.4 0 0 1-22.7-22.4c-19.1-28.6-18.2-68.5 2.2-96.3 29.9-40.9 83-41.9 121.4-13.5"
    style="fill:#bd96d2;fill-opacity:1;fill-rule:nonzero;stroke:none"
    transform="matrix(.13333 0 0 -.13333 0 2829.333)" />
  <path
    d="M7722.98 5142c-18.05-12-33.91-27.3-46.3-45.9-39.03-58.4-37.1-139.8 4.43-196.5 61.15-83.5 169.52-85.7 248.04-27.5 70.72 52.3 97.95 165.6 41.02 237.6-58.29 73.8-171.79 82.2-247.19 32.3M10984.1 4837.1c34.6 25.6 48 81.1 20.1 116.4-28.6 36.1-84.1 40.2-121 15.8-8.9-5.9-16.7-13.4-22.7-22.5-19.2-28.6-18.2-68.4 2.1-96.2 30-40.9 83.1-42 121.5-13.5M8689.22 7447.8c34.62 25.6 47.96 81.1 20.08 116.4-28.56 36.1-84.12 40.2-121.03 15.8-8.84-5.9-16.61-13.4-22.7-22.5-19.1-28.6-18.15-68.4 2.17-96.2 29.96-40.9 83.01-42 121.48-13.5M12785.6 4708.8c78.5 58.2 108.8 184 45.5 264-64.7 81.9-190.8 91.3-274.5 35.8-20-13.3-37.6-30.3-51.4-50.9-43.4-64.9-41.2-155.3 4.9-218.3 67.9-92.8 188.3-95.1 275.5-30.6M6497.42 7182.4c-167.19-251.3-158.58-601 19.8-844.6 263.21-359.5 729.49-368.7 1067.4-118.6 304.31 225.2 421.53 712.8 176.52 1022.8-201.67 255.2-556.81 328.6-856.88 236 4.19 64.4-11.85 129.2-53.21 181.5-102.36 129.5-301.63 144.3-433.96 56.6-31.71-21-59.56-47.9-81.34-80.5-68.52-102.5-65.09-245.5 7.8-345 41.51-56.7 95.41-92.1 153.87-108.2"
    style="fill:#bd96d2;fill-opacity:1;fill-rule:nonzero;stroke:none"
    transform="matrix(.13333 0 0 -.13333 0 2829.333)" />
  <path
    d="M11815.7 14236.9c0-122.9 99.7-222.5 222.6-222.5s222.5 99.6 222.5 222.5-99.6 222.5-222.5 222.5-222.6-99.6-222.6-222.5M11934.5 14893.5c-94.2 256.8-148.8 527.3-158.4 800.8-6.6 187.9 6.8 380.7-51.8 559.4-58.5 178.6-215 343.4-403 337.3-326.3-10.4-430-393.2-449.7-659-18-241.9 9-491.7 82.4-726.7-136.8 120.6-242.1 276.9-295.5 450.6-112.1-328.5-348.4-613-650.7-783.5 442.9-30.9 697.3-579 736.4-742.3 51.2 229.3 193.7 506 381.3 691 35.9-60 78.3-122.6 126-180 62-74.6 141.2-145.7 229.4-185.6-35.5-66.6-90-123-155.7-160.1 123-8.5 193.7-160.7 204.5-206.1 19.7 88.2 88.1 201.6 171 237.7-61 16.2-115.8 54.5-153.4 105.1 74.9-18.7 154.5-12.2 234.1 34.5 138.2 80.9 208.5 276.1 153.1 426.9"
    style="fill:#e5f6f9;fill-opacity:1;fill-rule:nonzero;stroke:none"
    transform="matrix(.13333 0 0 -.13333 0 2829.333)" />
  <path
    d="M10744.2 14130c51.2 229.4 193.7 506.1 381.3 691.1 72.3 71.3 151.3 129 234.3 165.1-149.8 39.6-289.3 116.4-405.8 219.1-136.8 120.6-242.1 276.9-295.5 450.6-112.1-328.5-348.4-613-650.7-783.5 442.9-30.9 697.3-579 736.4-742.4M11480.9 14455.5c-35.5-66.6-90-123-155.7-160.1 123-8.5 193.7-160.7 204.5-206.1 19.7 88.2 88.1 201.6 171 237.7-61 16.1-115.8 54.5-153.4 105.1-18.2 24.5-32.4 51.8-41.4 80.9-6.7-19.8-15.1-39.1-25-57.5M9962.6 15426.4c12.73 57.1 57 130.6 110.7 153.9-58.5 15.5-108.35 62.6-126.13 120.4-20.14-59-62.63-110.2-116.98-140.8 79.64-5.6 125.36-104.1 132.41-133.5M6142.21 11428.9c12.74 57.1 57 130.6 110.67 153.9-58.54 15.5-108.31 62.6-126.09 120.5-20.15-59.1-62.63-110.2-117-140.9 79.66-5.6 125.38-104.1 132.42-133.5"
    style="fill:#fff;fill-opacity:1;fill-rule:nonzero;stroke:none" transform="matrix(.13333 0 0 -.13333 0 2829.333)" />
  <path
    d="M5674.73 10257.8c136.98 188.1 614.98 628.6 364.75 877.2-172.96 171.9-528.28 17.9-679.95-105-356.2-288.5-654.4-760.8-872.01-1158.3-303.55-554.6-482.73-1191-421-1820.2 16.47-167.8 103.95-378.5 271.89-363.2 18.7 1.7 36.06 6 52.2 12.6-58.48-81.1-134.25-149.8-221.36-198.9 214.25-14.9 337.28-280 356.2-359 34.3 153.6 153.38 351.2 297.74 414-134.81 35.7-252.35 133.7-313.41 258.8 33.54 57.6 56.67 126.5 74.21 189.4 225.43 807.8 597.08 1574.5 1090.74 2252.6"
    style="fill:#e5f6f9;fill-opacity:1;fill-rule:nonzero;stroke:none"
    transform="matrix(.13333 0 0 -.13333 0 2829.333)" />
  <path
    d="M4390.61 7700.9c-58.48-81.1-134.25-149.8-221.36-198.9 214.25-14.9 337.27-280 356.2-359 34.3 153.6 153.37 351.2 297.74 414-134.81 35.7-252.36 133.7-313.41 258.8-10.25 21-18.91 42.8-25.79 65.2-21.93-64.3-53.68-125-93.38-180.1"
    style="fill:#fff;fill-opacity:1;fill-rule:nonzero;stroke:none" transform="matrix(.13333 0 0 -.13333 0 2829.333)" />
</svg>
