<svg xmlns="http://www.w3.org/2000/svg" width="2530.667" height="3162.667">
  <!-- Credit: <a href="https://www.magnific.com/free-vector/ruler-school-supply-icon-isolated_88799847.htm">Image by djvstock on Magnific</a> -->
  <path
    d="m13816.2 19456.6-2465.6 880.4c-126.3 45.2-548.1-109.1-761.7-257.1 66 23.2 139.9 24.9 210.4-.3l2465.6-880.4c163.9-58.5 250.1-240.4 191.5-404.2L8027.15 3591.2c-41.37-115.8-144.45-192.5-259.18-206.9l.23-.2c163.75-58.5 751.72 300.8 810.2 464.6l5429.3 15203.7c58.5 163.9-27.7 345.7-191.5 404.2"
    style="fill:#871b8d;fill-opacity:1;fill-rule:nonzero;stroke:none"
    transform="matrix(.13333 0 0 -.13333 0 3162.667)" />
  <path
    d="M8027.15 3591.2 13456.4 18795c58.6 163.8-27.6 345.7-191.5 404.2l-2465.6 880.4c-70.5 25.2-144.4 23.5-210.4.3-87.1-30.6-160.4-98.6-193.6-191.8L4965.98 4684.4c-58.52-163.8 27.65-345.7 191.4-404.2l2465.59-880.4c47.97-17.2 97.5-21.6 145-15.5 114.73 14.4 217.81 91.1 259.18 206.9"
    style="fill:#f2bb16;fill-opacity:1;fill-rule:nonzero;stroke:none"
    transform="matrix(.13333 0 0 -.13333 0 3162.667)" />
  <path
    d="m13264.9 19199.2-870.1 310.7c37.2-339 56.8-680.8 56.8-1024.2 0-2505.6-1007.4-4936.3-2778.32-6707.1-832.97-833.1-1812.15-1497-2876.29-1966.8L4965.98 4684.4c-58.52-163.8 27.65-345.7 191.4-404.2l2465.59-880.4c163.87-58.6 345.7 27.6 404.18 191.4L13456.4 18795c58.6 163.8-27.6 345.7-191.5 404.2"
    style="fill:#f27025;fill-opacity:1;fill-rule:nonzero;stroke:none"
    transform="matrix(.13333 0 0 -.13333 0 3162.667)" />
  <path
    d="M10479.9 19032.1c-136.1 48.6-263.3 79.7-358 90.7l-53.1-148.9c80.1-51.6 198.3-108.1 334.4-156.7 265.8-94.9 498.3-123.7 519.5-64.3 21.2 59.3-177 184.3-442.8 279.2M10001.6 17692.5c-136.13 48.6-263.4 79.8-358.05 90.7l-53.16-148.8c80.2-51.5 198.4-108.1 334.45-156.7 265.86-94.8 498.36-123.7 519.46-64.4 21.2 59.4-177 184.3-442.7 279.2M9523.28 16353c-136.05 48.6-263.44 79.7-358.08 90.7l-53.17-148.9c80.16-51.5 198.48-108 334.53-156.6 265.74-94.9 498.21-123.8 519.46-64.4 21.13 59.3-177.04 184.3-442.74 279.2M9044.92 15013.5c-136.09 48.6-263.44 79.7-358.12 90.7l-53.05-148.9c80.08-51.5 198.4-108 334.45-156.7 265.71-94.8 498.21-123.6 519.46-64.3 21.13 59.3-176.92 184.3-442.74 279.2M9249.06 13430.2c-437.73 156.4-827.73 271.8-1047.58 314.8l-39.14-109.6c197.31-105.9 572.31-263.7 1010.04-420 660.63-235.9 1213.62-379.2 1234.72-319.8 21.2 59.3-497.41 298.7-1158.04 534.6M8088.28 12334.4c-136.17 48.6-263.44 79.7-358.08 90.7l-53.17-148.9c80.16-51.5 198.36-108 334.45-156.7 265.82-94.8 498.29-123.7 519.42-64.3 21.25 59.3-176.92 184.3-442.62 279.2M8052.66 10715.6c21.13 59.4-177.03 184.4-442.74 279.2-136.17 48.6-263.44 79.8-358.12 90.7l-53.17-148.8c80.2-51.5 198.52-108.1 334.57-156.6 265.75-94.9 498.21-123.7 519.46-64.5M7054.84 9440.5c265.71-94.9 498.32-123.7 519.46-64.4 21.13 59.3-177.03 184.3-442.78 279.3-136.05 48.5-263.39 79.7-358.08 90.6l-53.17-148.9c80.2-51.5 198.52-108 334.57-156.6M6576.48 8100.9c265.82-94.8 498.29-123.7 519.42-64.3 21.25 59.3-176.92 184.3-442.74 279.2-136.05 48.6-263.32 79.8-357.96 90.7l-53.17-148.8c80.16-51.6 198.36-108.1 334.45-156.8M6780.63 6517.7c660.62-235.9 1213.63-379.1 1234.76-319.8 21.25 59.3-497.3 298.7-1157.97 534.6-437.81 156.3-827.85 271.9-1047.58 314.8l-39.21-109.6c197.42-105.9 572.26-263.7 1010-420M6139.3 5357.5c21.13 59.3-177.03 184.3-442.78 279.2-136.17 48.6-263.39 79.7-358.08 90.7l-53.17-148.8c80.2-51.6 198.52-108.1 334.57-156.7 265.71-94.9 498.21-123.7 519.46-64.4"
    style="fill:#871b8d;fill-opacity:1;fill-rule:nonzero;stroke:none"
    transform="matrix(.13333 0 0 -.13333 0 3162.667)" />
  <path
    d="M11315 19418.2c-466.2 154-823.4 341.3-797.9 418.7 25.6 77.2 424.1 15 890.1-139 466.2-154 823.4-341.3 797.9-418.4-25.6-77.5-424.1-15.3-890.1 138.7"
    style="fill:#fff;fill-opacity:1;fill-rule:nonzero;stroke:none" transform="matrix(.13333 0 0 -.13333 0 3162.667)" />
  <path
    d="M11423.4 15580.3c527.3 1348.8 680.9 2827.8 756.7 2798.2 75.7-29.8 41.3-1589.2-486-2937.9-527.2-1348.8-1347.4-1976.1-1423-1946.4-76 29.7 625.2 737.3 1152.3 2086.1"
    style="fill:#f27025;fill-opacity:1;fill-rule:nonzero;stroke:none"
    transform="matrix(.13333 0 0 -.13333 0 3162.667)" />
</svg>
