<svg xmlns="http://www.w3.org/2000/svg" width="2622.667" height="3052">
  <!-- Credit: <a href="https://www.magnific.com/free-vector/kawaii-orange-potted-plant_146541908.htm">Image by grmarc on Magnific</a> -->
  <path
    d="M13566.3 8736.6H3882.57c-3.52 0-6.46-2.8-6.73-6.3-54.65-821.4-197.85-3617.9 254.72-5113.1.52-1.6 1.62-3 3.1-3.9 446.62-260 975.54-358.1 1490.17-275.7 256.08 54.9 502.59 154.3 741.02 250.5 478.68 193.1 930.82 375.7 1462.11 233.9 209.52-55.2 425.82-125.3 635.02-193.2 503.64-163.4 1017.59-330.2 1536-330.1 335.12 0 672.22 69.7 1009.32 255.1 551.6 367.7 711.2 928.2 880.2 1521.6 29 102 59.1 207.5 91.1 311.5 13.6 40.7 23.8 91.8 34.7 145.9 17.4 86.6 37.2 184.7 75.8 268.9.8 1.7.9 3.6.2 5.3-27.8 69-42.4 147.3-42.4 226.6 0 256.4 149.4 465.1 333 465.1 165.9 0 307.7-173.2 329.7-402.9.2-1.9 1.1-3.6 2.7-4.8 1.4-1.1 3.3-1.4 5.2-1.2 38.4 6.8 77.1 13.4 115.7 20.1 476.3 81.8 968.6 166.5 1082.8 622.9 148.2 630.2 26.2 1340.6-343.8 2000.4-1.2 2.1-3.5 3.4-5.9 3.4M16321.2 11475.4c-5 133.9-9.6 260.3-9.6 384.7 0 180.4-59 353.6-170.4 500.9-1.2 1.6-3 2.6-4.8 2.7-26.9 2.1-55.7 4-84.5 4H3539.62c-27.21 0-53.44-1.6-84.5-4-1.89-.1-3.67-1.1-4.83-2.7-111.46-147.3-170.37-320.5-170.37-500.9v-770.9c0-69-2.78-140-5.47-208.7-9.98-255.4-20.33-519.4 106.21-755 237.32-441.5 734.34-492.5 1142.39-487 486.94 6.2 982.01 5.4 1460.86 4.9 140.73-.2 281.45-.4 422.19-.4l1425.38-.2c1533.32-.2 3066.62-.2 4599.92-.2 174.1 0 351.5 1.9 523 3.8 320.8 3.6 652.7 7.1 977.8-1.7 144-3.9 290-16.2 431.3-28.1 149.2-12.6 303.6-25.6 456-28.8 26.1-.5 51.5-.7 76.8-.7 766.5 0 1209.7 247.4 1353.7 755.2 99.9 352.2 85.3 749.2 71.2 1133.1"
    style="fill:#f68455;fill-opacity:1;fill-rule:nonzero;stroke:none" transform="matrix(.13333 0 0 -.13333 0 3052)" />
  <path
    d="M15708.9 8736.6h-2142.6c-2.3 0-4.6-1.3-5.8-3.3-1.2-2.1-1.2-4.7-.1-6.8 368.4-656.7 490-1363.7 342.5-1990.6-112-447.8-600-531.7-1072-612.8-38.7-6.6-77.3-13.3-115.7-20.1-3.5-.6-5.9-3.8-5.6-7.2 2.3-23.5 3.3-43.2 3.3-62.2 0-256.4-149.4-465-333-465-120.3 0-231.7 91.3-290.6 238.4-1 2.5-3.4 4.1-6.1 4.2h-.2c-2.6 0-5-1.5-6.1-3.9-39.3-85.6-59.2-184.6-76.7-271.8-10.9-53.7-21.1-104.5-34.4-144.5-32.1-104.3-62.2-209.9-91.2-311.9-168.3-591-327.3-1149.1-874.3-1513.8-852.9-469.1-1707.71-191.8-2534.17 76.3-209.36 67.9-425.87 138.2-635.7 193.4-535.54 142.7-989.74-40.5-1470.63-234.4-237.84-96-483.83-195.2-738.44-249.8-510.95-81.7-1037.03 15.6-1481.13 274.2-2.37 1.4-5.37 1.3-7.52-.5-2.21-1.7-3.1-4.6-2.31-7.2 38.47-126.9 80.98-243.3 126.49-345.8l1.15-2.6c1.69-3.8 3.37-7.6 5.05-11.3 13.82-30.6 28.37-60.9 43.35-90.3l4.1-8.2c16.76-32.3 33.9-63.1 50.87-91.4l4.1-6.4c14.56-24 30.21-48 46.67-71.6 4.35-6.2 8.72-12.2 13.08-18.3l2.1-2.8c13.03-17.9 26.64-35.4 40.41-52.2l4.63-5.6c3.83-4.8 7.67-9.5 11.56-14 20.55-23.8 39.3-43.8 57.01-60.7.21-.3.48-.5.74-.8 538.38-516.4 1326.48-938.7 2279.01-1221.4 897.14-266.2 1925.87-406.9 2974.99-406.9 1049.19 0 2077.89 140.7 2975.09 406.9 952.5 282.7 1740.6 705 2279 1221.5 258 247.4 450.8 754.3 573.1 1506.6 6.4 39.7 12.7 79.7 18.6 120.1 70 473.3 114.1 1039.4 131.3 1682.5q1.65 65.85 3 131.4c2.6 126.3 4.3 257.2 4.8 389.1 3.8 890.5-39.1 1676.1-65 2065.2-.2 3.5-3.2 6.3-6.7 6.3M17059.5 11412.4c-.1 31-1.8 62.2-5 93-.7 6.7-1.8 13.4-2.9 19.9-.7 4.3-1.4 8.5-2 12.9l-1.1 7.4c-2.4 17.3-5 35.2-8.6 52.5-1.8 8.7-4.1 17.1-6.4 25.5-1.2 4.4-2.4 8.7-3.5 13.1l-2.6 10.3c-3.4 13.4-6.9 27.2-11.1 40.6-3.4 10.4-7.2 20.5-11.1 30.6l-6.5 17.5c-4.6 12.3-9.2 25.2-14.6 37.5-4.9 11.4-10.4 22.5-15.9 33.5l-7.8 15.9c-5.3 10.7-10.6 21.5-16.4 32.1-7.2 13-15.2 25.8-22.9 38.1l-6.6 10.6c-5.9 9.5-11.7 18.9-18 28-9.8 14.3-20.1 27.8-31.1 42.1-7.6 10-15.2 20-23.3 29.6-10.6 12.7-22.1 25.7-36.3 40.9-8 8.6-16 17.1-24.4 25.4-13 13-26.8 25.9-42.2 39.7-8 7-16 14-24.2 20.8-15.6 13-31.9 25.7-48.4 37.8-7.6 5.6-15.4 11.1-23.2 16.5-19.1 13.1-36.9 24.7-54.7 35.3-7.1 4.3-14.4 8.4-21.8 12.5-21.8 12.4-41.7 22.9-61 32.1-5.7 2.8-11.6 5.5-17.5 8.1l-2.1.9c-24.2 11.1-46.3 20.3-67.5 28.2-2.8 1-5.7 2-8.4 2.9-2.8 1-5.6 1.9-8.3 2.9-27.4 9.6-51.6 17.3-74.2 23.4-2.6.6-5.1 1.2-7.8 1.9l-5.3 1.3c-29.9 7.6-56.4 13.4-81.1 17.7-1.4.2-2.9.4-4.4.6-1.2.2-2.4.3-3.7.5-32.1 5.3-61.2 9-89.2 11.2-2.3-.2-5.2-1.1-6.5-3.4-1.2-2.4-1.1-5.2.6-7.3 109.6-145 167.6-315.5 167.6-492.9 0-124.7 4.7-251.2 9.6-385.2 14.1-382.9 28.7-778.8-70.6-1129-142.2-501.1-581.1-745.4-1340.8-745.4-25.2 0-50.6.3-76.4.8-152.1 3.1-306.3 16.1-455.3 28.7-141.5 11.9-287.7 24.2-432.1 28.1-325.2 8.9-657.2 5.3-978.2 1.7-171.5-1.8-348.9-3.7-522.9-3.7-1533.3 0-3066.6 0-4599.92.1l-1425.38.3c-140.74 0-281.46.2-422.19.4-478.89.5-974.03 1.3-1461.07-4.9-427.76-5.3-897.77 47.2-1130.31 480-124.86 232.2-114.56 494.4-104.62 748 2.68 68.7 5.47 139.9 5.47 209.2v770.9c0 177.4 57.96 347.9 167.63 492.9 1.63 2.1 1.79 4.9.53 7.3-1.27 2.3-3.89 3.6-6.42 3.4-27.95-2.2-57.17-5.9-89.38-11.2-1.21-.2-2.42-.3-3.63-.5-1.42-.2-2.89-.4-4.26-.6-24.75-4.3-51.29-10.1-81.08-17.7l-5.41-1.3c-2.64-.7-5.21-1.3-7.79-1.9-23.17-6.3-47.39-14-74.2-23.4l-7.93-2.8c-2.89-1-5.83-2-8.83-3-21.13-7.9-43.19-17.1-67.37-28.1l-3.1-1.4c-5.62-2.5-11.19-5-16.61-7.7-19.28-9.2-39.2-19.7-61.06-32l-4.2-2.4c-5.89-3.4-11.72-6.7-17.55-10.2-17.56-10.5-35.95-22.4-54.61-35.3-7.87-5.4-15.66-10.9-23.33-16.5-16.18-11.9-32.42-24.6-48.34-37.8-8.2-6.8-16.24-13.8-24.23-20.9-15.03-13.3-29.22-26.6-42.14-39.5-7.68-7.7-15.03-15.5-22.39-23.3l-2.05-2.2c-14.92-16.1-26.12-28.6-36.31-40.8-8.04-9.7-15.66-19.7-23.81-30.3-10.51-13.8-20.81-27.3-30.48-41.5-6.78-9.8-13.13-20-19.44-30.2l-5.47-8.8c-7.62-12.2-15.5-24.8-22.59-37.7-6.2-11.2-11.83-22.7-17.45-34.2l-7.46-15.1c-5.25-10.6-10.51-21.3-15.24-32.1-5.1-11.9-9.56-24-14.03-36.1l-7.62-20.4c-3.68-9.6-7.36-19.3-10.52-29.2-4.46-14-8.08-28.5-11.66-42.6l-2.21-8.8c-1.05-4-2.1-8-3.2-12-2.37-8.5-4.73-17.2-6.57-26-3.68-17.6-6.25-35.8-8.78-53.4l-1.05-7.5c-.58-4.2-1.26-8.3-1.94-12.4-1.11-6.5-2.16-12.9-2.84-19.4-3.36-32.2-5.1-64.4-5.1-95.5V9896.2c0-256 104.84-496.5 295.29-677.4 36.46-34.7 77.93-67.8 126.69-101 17.24-11.7 36.05-23.6 57.55-36.2 74.2-43.6 151.08-77.3 228.64-100.2 32.16-9.4 64.64-17.4 96.54-23.6 66.43-12.9 134.74-19.4 203.05-19.4H16051.9c68.2 0 136.5 6.5 203 19.4 64.7 12.6 128.4 31.4 189.1 55.8 29.6 11.8 59.2 25.4 88.1 40.3 325.4 167.9 527.5 490.7 527.5 842.3V11410z"
    style="fill:#f57948;fill-opacity:1;fill-rule:nonzero;stroke:none" transform="matrix(.13333 0 0 -.13333 0 3052)" />
  <path
    d="M15410.4 17161.2c.9-.3 1.9-.6 2.8-.6 2.3 0 4.4 1.2 5.7 3.1 296 461.5 374.5 1374.2 220.9 2570-54.8 426.8-263.8 813.7-588.5 1089.3-314.2 266.7-713 413.6-1123.2 413.6-226.8 0-450.3-45.3-664.2-134.7-.7-.2-1.3-.6-1.8-1.1-586.5-502.5-700.4-1507.3-553.1-2280.5 62.9-251.8 179.1-482.5 345.3-685.9 1.1-1.3 2.8-2.2 4.5-2.4 1.8-.2 3.6.4 5 1.6 59.4 49.4 116.5 104.4 169.9 163.5.4.5.7 1 1 1.5 215.3 428.5 432.4 809.4 663.7 1164.6 13.5 20.9 41.4 26.6 62.3 13.2 20.4-13.4 26.5-41.1 13.4-62.1-215.1-388-418.7-786.8-605.7-1186.5-30.7-129.1-45.7-246.6-46-359.3 0-2 .9-3.9 2.4-5.2 377.8-313 905.7-528.1 1486.2-605.5 189.3-33.4 392.9-68.2 599.4-96.6M10040.2 17822.5c-252.58 0-492.05-84.1-692.54-243.1-303.53-240.8-557.77-492.3-735.12-727.4-1.74-2.3-1.84-5.5-.16-7.9 124.96-181.6 268.48-345 426.5-485.5 181.41-161.3 420.77-292.2 711.32-389.1 1.74-.6 3.52-.4 5.26.4 1.58.8 2.78 2.3 3.31 4 75.2 247 160.7 485.5 254.13 708.9 11.5 25.9 38.1 31.5 59 23.3 17.9-7 35.2-25.9 24.8-56.6-72.7-239.9-139.24-481.7-197.62-718.7-.9-3.6 1.21-7.1 4.73-8.1 244.79-67.6 516.29-112.9 807.09-134.6 208-15.4 399.4-23 583.7-23 12.6 0 25.3.1 37.9.1 3.6 0 6.6 2.9 6.7 6.5 11 334-73.4 781-244.2 1292.8-151.2 453.4-575.1 758-1054.8 758M14645 15911.3c-252.5 0-492-84.1-692.5-243.1-116.3-92.2-228.2-188.6-332.5-286.5-1.7-1.6-2.5-4-2-6.4 43.6-200.3 108.5-390.2 192.9-564.4 123.8-255.5 316.8-475.4 573.6-653.3 1.8-1.3 4.1-1.6 6-.8 2.1.6 3.6 2.2 4.3 4.3 69.4 218.2 142.4 417.9 222.9 610.5 11.5 25.9 38.1 31.5 59 23.4 18-7 35.3-26 24.9-56.6-65.8-216.9-127.3-439-182.9-660.1-.7-2.9.5-5.9 3.1-7.4 343.1-201.6 785.5-338.5 1279.3-396.1 35.3-4.1 71.2-7.7 107.1-11.2l8.3-.8h.7c3.2 0 6 2.3 6.6 5.5 61.2 341.2-18.4 868.6-224 1485.1-151.2 453.3-575 757.9-1054.8 757.9M5364.34 16215c-166.85 86.1-344.84 129.7-529.08 129.7-575.8 0-1065.1-429.7-1138.25-999.4-82.6-642.9-62.27-1181.7 57.18-1517.1 1-2.8 3.57-4.5 6.36-4.5.68 0 1.42.1 2.1.3 559.56 185.4 994.67 414.2 1330.21 699.4 2.31 2 2.99 5.3 1.73 8.1-101.16 214-200.11 408.1-302.69 593.5-14.66 23.8-3.46 48.7 15.19 61.1 16.19 10.8 41.89 13.8 60.64-12.4 112.62-174.9 222.82-359 327.55-547.5 1-1.8 2.84-3.1 4.89-3.4 1.99-.4 4.2.4 5.62 1.9 143.2 136.9 260.28 279.1 358.08 434.4 158.76 252.2 236.74 556.6 231.91 904.5-.06 2.3-1.21 4.4-3.1 5.6-134.53 85.9-278.63 168.6-428.34 245.8M7720.02 21324.7c-311.2 246.9-682.95 377.4-1075.08 377.4-744.69-.1-1402.78-472.9-1637.47-1176.7-198.8-595.9-424.93-1446.7-373.53-2115.7.15-1.8.99-3.5 2.41-4.7 1.21-1 2.74-1.5 4.32-1.5h.62c850.22 80.3 1579.09 325 2166.35 727.4 2.41 1.7 3.46 4.6 2.68 7.4-73.37 263.3-150.77 516.4-230.17 752.6-4.42 11.5-3.84 24.4 1.47 35.6 5.3 11.2 14.55 19.4 26.17 23.3 22.54 7.4 47.19-3.7 56.12-25.7 87.97-228.6 172.47-466.2 251.09-706.2.68-2 2.31-3.6 4.36-4.3 2.15-.7 4.31-.2 6.09 1 90.86 67.8 176.89 138.3 255.72 209.4 444.57 401.1 757.98 924.7 931.56 1556.3 2.41 1.1 3.99 3.5 3.99 6.2v.4c0 1.9-.78 3.7-2.26 5-126.8 113.9-259.54 225.8-394.44 332.8"
    style="fill:#a3db6c;fill-opacity:1;fill-rule:nonzero;stroke:none" transform="matrix(.13333 0 0 -.13333 0 3052)" />
  <path
    d="M14490.7 16651.5c25.5 0 52.4 1.2 82.2 3.6 5.5.4 11 1 16.5 1.5l7 .8c21.1 2.2 40.7 4.7 59.8 7.8l5 .8c6.2 1 12.4 2 18.6 3.1 27.8 5.1 52 10.4 75.7 16.5l2.2.6c23.4 6.1 48.1 13.6 75.6 23.1 5.8 1.9 11.6 4.1 17.4 6.2l4.1 1.6c18.4 6.7 36.6 13.8 54 21.2l4.4 1.9 16.8 7.2c24.7 11.2 46.6 21.8 67.1 32.7l2.3 1.1c20.4 10.9 41.4 23.1 66.2 38.4 4.5 2.9 8.9 5.7 13.2 8.6l5.6 3.6c15.5 10 31.1 20.6 46.3 31.6l7.3 5.2 10.8 7.8c22.7 17 40.8 31.4 56.9 45.1.1.1 1.5 1.1 1.6 1.3 16.9 14.4 34.6 30.6 54.2 49.5 3.7 3.6 7.3 7.2 10.9 10.8l4.3 4.4c12.9 12.9 25.3 25.9 36.9 38.8l4 4.4c3.4 3.8 6.9 7.5 10.2 11.3 17.2 19.8 31.9 37.6 44.2 53.6.3.4.7.9 1 1.5h.1c13.9 18.3 26.9 38.6 39.5 58.3l5.5 8.7c1.3 1.9 1.5 4.3.5 6.4s-2.9 3.5-5.2 3.9c-206.7 28.3-410.6 63.2-600.1 96.7h-.3c-578.2 77.2-1103.7 291.1-1479.6 602.6-2 1.6-4.8 1.9-7.1.9-2.4-1.1-3.9-3.5-3.9-6.1-.1-26.3 1-55.3 3.2-88.6.5-7.4 1.1-14.8 1.7-22.2 3.1-35.1 6.5-64 10.9-91 22.4-138.4 76.8-282.1 157.2-415.7 41.4-68.7 89.1-133.7 141.7-193.5 54.8-62.2 115-118.8 179.2-168.3 67.2-51.8 139-96 213.7-131.5 25.9-12.3 52.3-23.6 78.3-33.6 31.4-12.1 64.2-23.1 97.3-32.5 7-1.9 13.9-3.4 20.9-5 4.7-1 9.4-2 14.1-3.2l11.7-2.9c16.3-4.1 33.2-8.4 49.7-11.4 8.6-1.6 17.1-2.6 25.6-3.7 4.8-.6 9.7-1.2 14.6-1.9l14.2-2.1c13.4-2.1 27.2-4.2 40.7-5.5 8.9-.8 17.6-1.1 26.3-1.4 5.1-.2 10.3-.3 15.4-.6l14.3-.8c12.6-.8 25.2-1.5 37.6-1.6M12976 18065.2c33.3 24 62.1 46.2 88.1 68 2.8 2.4 3.2 6.6.9 9.4-165 201.8-280.4 430.9-343 680.7-146.3 768.9-33.5 1767.8 548.4 2266.9 2.1 1.5 3.2 4.2 2.7 6.8-.8 4.2-6 6.7-9.6 4.7-18.7-7.8-37.4-15.9-55.9-24.3-28.9-13-52.7-24.4-75.1-35.9-475.4-245.3-882.3-506.5-1209.4-776.3-7.6-6.2-15.2-12.4-22.6-18.7-85-70.9-164-142.2-234.9-212l-2.1-2.1c-254.9-251.1-422.3-495.7-497.7-726.9-128.7-395.4-51.5-936.1 411.4-1252.5 23.9-16.3 49.1-32.1 77-47.9 5.3-3 10.6-5.8 15.9-8.5 3.4-1.8 6.8-3.5 10.1-5.3 16.1-8.7 34.9-18.6 53.8-27.5 7.6-3.6 15.3-6.9 23-10.2l8.7-3.7c14.9-6.6 32.6-14.1 50.4-21 9.6-3.6 19.4-7.1 29.1-10.5l5.1-1.8c18.8-6.5 34.7-11.7 50-16.2 11.6-3.6 23.4-6.9 35.1-10 16.8-4.6 33.6-8.7 50.5-12.5 11.7-2.6 23.4-5.2 35.2-7.6 17.3-3.4 34.7-6.2 52-8.9l8.5-1.4c8.5-1.3 16.9-2.6 25.4-3.7 19.3-2.5 38.8-4.2 55.5-5.7l11.3-1c6.3-.6 12.6-1.2 19-1.6 19.7-1.2 41.4-1.9 68-2.3l7-.2c3.5-.1 6.9-.2 10.3-.2 2.9 0 5.8.1 8.7.2l6.9.1c23.1.3 41.9 1 59.2 2 6 .3 11.8.8 17.7 1.3l8.7.7c15.8 1.2 31.6 2.6 47.4 4.4q10.35 1.2 20.7 2.7l8 1c14.7 2 29.2 4.2 43.7 6.7q14.55 2.55 28.8 5.4c14.2 2.7 28.1 5.8 42.1 9 9.3 2.2 18.6 4.4 27.8 6.8 14 3.6 27.9 7.6 41.5 11.6l5.1 1.6c6.9 2 13.8 4 20.6 6.2 14.7 4.8 29.2 10 43.5 15.4l8.3 3c4.2 1.5 8.3 3 12.4 4.6 22.3 8.8 42.2 17.4 60.8 26.2.2.1.4.2.5.2 30.4 14.5 62.2 31.8 100.1 54.6l3.9 2.3c11.1 6.7 22.2 13.4 33 20.4 16 10.4 31.4 21.4 48.5 33.5M9754.51 15982.2c-288.87 96.4-526.66 226.4-706.7 386.5-157.23 139.7-300.01 302.3-424.39 483.1-1.11 1.6-3.32 2.2-5.31 2.4-1.47.2-4.31-1-5.73-2.4-20.71-27.4-40.2-54.3-58.86-81.4-17.81-25.7-35-51.8-51.13-77.6l-3.1-5c-15.92-25.8-30.01-49.6-43.04-72.9l-5.72-10.8c-13.15-23.9-24.39-45.6-34.37-66.3-1.69-3.5-3.27-6.9-4.84-10.4l-3.36-7.5c-7.46-16-17.13-37.2-25.75-58.3-2.37-5.9-4.47-11.8-6.57-17.6l-5.57-15.2c-5.26-14-10.67-28.4-15.19-42.5-3.2-10.1-5.78-20-8.4-29.8l-2.74-10.3c-1.05-4-2.2-8.1-3.31-12.1-2.1-7.4-4.21-14.8-5.83-22-5.68-25.3-9.99-49.9-12.82-73.2-5.99-49-6.68-100.1-2.05-151.8l1.1-10c2.89-28.7 7.77-58.5 14.5-88.6 5.36-23.9 10.88-44.7 16.87-63.5 17.24-54.1 40.41-105.5 68.9-152.8 73.67-122.3 183.24-217.3 317.3-274.8 19.28-8.3 40.25-16 65.89-24.1 5.52-1.7 11.09-3.4 18.03-5.4 19.76-5.7 39.41-10.6 58.33-14.5l4.25-1c1.9-.4 3.79-.9 5.74-1.3 21.49-4.1 43.61-7.2 67.57-9.7 4.21-.4 8.41-.7 12.62-1l4.94-.5c18.39-1.4 36.99-2.3 55.33-2.5l6-.1c2.67-.1 5.35-.2 8.03-.2h1.42c20.97.2 41.36.9 60.65 2.4l8.83 1c16.65 1.5 33.84 3.5 51.23 6.1 4.78.7 9.46 1.5 14.14 2.3l5.36 1c13.66 2.3 27.22 5 40.56 8 6.58 1.4 13.04 2.8 19.45 4.5 14.09 3.4 28.53 7.4 44.19 12.2l5.1 1.5c2.47.7 4.94 1.4 7.31 2.2 17.6 5.7 35.68 12.2 53.7 19.4 2.73 1.1 5.41 2.3 8.09 3.5l5.79 2.5c12.92 5.4 25.54 11.1 37.94 17.1 5.62 2.7 11.19 5.6 16.76 8.5 11.56 6.1 22.81 12.3 33.74 18.7l3.31 2c3.73 2.1 7.51 4.3 11.09 6.5 16.76 10.4 31.16 20.1 43.98 29.6 19.18 14.2 38.31 30.1 60.17 50 5.62 5.1 11.09 10.3 16.56 15.6 14.24 13.7 27.9 27.7 40.51 41.7l5.36 5.8c2.74 2.9 5.42 5.7 7.99 8.7 14.51 16.7 28.59 34.4 43.04 53.8 1.89 2.5 3.73 5.1 5.52 7.7l3.63 5.1c.46.7.78 1.4.99 2.2 20.13 72.1 38.84 136.6 57.23 197.2 1.1 3.5-.84 7.1-4.26 8.3M11332.4 15778.7c-195.7-1-398.6 6.4-620.5 22.9-289.9 21.5-560.6 66.7-804.52 134-1.78.5-3.63.3-5.2-.7-1.53-.8-2.68-2.4-3.1-4.1-16.71-67.6-33.9-140.3-52.55-222-.16-.6-.21-1.3-.16-2 1.52-20.6 3.57-40.7 6.2-59.8.58-4.3 1.37-8.6 2.1-12.8l1.11-6.3c2.99-19.2 6.78-38.6 11.14-57.5 1.73-7.3 3.41-14.5 5.25-21.8 7.62-29.2 14.98-53 23.13-74.9 10.4-27.9 23.17-56.1 37.94-83.8 104.96-196 301.46-351.3 512.76-405.1 17.9-4.6 36.1-8.5 53.7-11.5 20.5-3.6 42-6.4 63.8-8.3 4.3-.3 8.5-.4 12.7-.6 2.7-.1 5.4-.1 8-.3l4.3-.2c11.5-.6 23.3-1.2 34.9-1.2 4.8 0 9.4.1 14.2.4l6.7.3c12 .4 26.1.9 40.1 2.3 6.2.5 12.4 1.3 18.5 2.2l3.2.4c11.8 1.5 23.6 3.1 35.1 5.2 7.3 1.3 14.3 2.8 22.2 4.5 11.1 2.4 22 5 32.9 7.9 7.3 2 14.4 4 21.6 6.2 10.8 3.3 21.3 6.9 31.9 10.7l2.9 1.1c5.8 2.1 11.5 4.1 17.1 6.4 10.9 4.3 21.5 9 32.1 13.8l6.6 3c3.6 1.7 7.3 3.3 10.8 5 10.9 5.3 22 11.3 36.1 19.3l4.6 2.5c2.2 1.2 4.3 2.3 6.4 3.6 14.8 8.6 29.8 18.3 44.8 28.6 1.7 1.2 3.4 2.5 5.1 3.8l4.2 3.1c11.1 8 22 16.1 32.6 24.7 3 2.4 5.9 4.9 8.8 7.4l5.3 4.5c8.5 7.3 17 14.6 25.1 22.1 4.1 3.7 7.9 7.5 11.8 11.3l2.9 2.8c7.4 7.3 14.8 14.7 22 22.3 4.7 5.1 9.3 10.1 13.8 15.2 6.9 7.7 13.5 15.5 20 23.4 4.3 5.2 8.5 10.3 12.6 15.6 6.4 8.3 12.5 16.6 18.5 25.1l2.5 3.6c2.9 3.8 5.7 7.8 8.3 11.6 6.4 9.5 12.3 19.1 18.1 28.6l2.3 3.6q3 4.65 5.7 9.3c8.8 15.1 16.3 29 22.8 42.3 11.5 23.3 22.1 49.6 32.6 80.4 1.8 5.4 3.5 11.1 5.1 16.8l2.5 8.5c7 23.1 12.6 44.4 17.3 65.3 2.1 9.6 4 19.2 5.9 29.1 4.6 23.9 8.5 49 11.6 74.4l1 7.3c.7 5.8 1.5 11.7 2.1 17.6 3.9 36.9 6.3 71.5 7.5 105.9 0 1.9-.7 3.6-1.9 4.9-1.3 1.3-3 2.1-4.9 2.1M13823 14816.8c-83.9 173.2-148.4 362.1-191.8 561.4-1.1 4.9-8.2 6.9-11.5 3.1-72.1-67.6-140.5-136.2-203.2-203.8l-2.8-3c-18.5-20-36.5-40.1-54.1-60l-14.3-16.3c-16.4-18.8-32.5-37.6-48.2-56.4l-13.3-16.5c-45.8-56-88.4-112.4-126.5-167.7-7.6-10.9-15-21.7-22.2-32.5-8.9-13.5-17.5-26.9-25.9-40.3-8-12.6-15.6-25.2-23-37.7-7.2-12.1-14.5-24.2-21.2-36.3-9.3-16.2-17.8-32.4-26.1-48.6l-5.2-9.8c-2.7-5-5.4-10-7.9-15-11.1-22.7-21.6-45.8-32.1-70.5-2.4-5.7-4.5-11.4-6.7-17l-3.1-8c-6.7-16.8-12.7-33.2-17.9-48.6-3-8.7-5.7-17.3-8.4-25.9-4.6-14.8-9-30.8-13.5-48.7l-1.9-7.8c-1.3-4.8-2.5-9.7-3.5-14.5-5.7-25.7-9.6-48.1-12.1-68.6-4-33.5-5.7-67.9-4.9-102.4 1.6-71.9 13.5-143.1 35.3-211.6 17.1-53.7 40.3-105.2 68.9-152.8 20.1-33.2 42.8-64.6 67.6-93.4 25.8-29.9 54.6-57.9 85.6-83 48.8-39.5 104-72.5 163.7-98.2 19.4-8.3 40.5-16.1 66.5-24.3 5.9-1.9 11.8-3.6 17.8-5.4 20.2-5.8 39.8-10.7 58.7-14.6 1.5-.2 3-.6 4.5-1 1.7-.4 3.4-.8 5.1-1.1 21.6-4.1 43.7-7.3 67.8-9.7 3.9-.4 7.7-.7 11.5-1l5.6-.5c18.4-1.4 37.2-2.3 56-2.5l5.7-.2c2.7-.1 5.3-.1 7.9-.1h1.3c21.3.1 41.8.9 60.9 2.4l4.4.5 3.8.3c17.4 1.6 34.9 3.7 52 6.2 4.4.7 8.8 1.5 13.2 2.3l5.8 1c13.9 2.4 27.5 5.1 42.2 8.3 6 1.4 12.1 2.7 18.1 4.2 14.5 3.6 29.4 7.7 44.4 12.3l4.5 1.4c2.6.7 5.2 1.4 7.7 2.2 17.5 5.7 35.5 12.2 53.8 19.5 2.8 1.1 5.5 2.3 8.2 3.5l5.5 2.4c13.4 5.6 26.2 11.4 38 17.2 5.7 2.7 11.2 5.6 16.8 8.5 11.5 5.9 22.7 12.2 33.7 18.6l5.6 3.3c3 1.8 6 3.5 9 5.3 16.5 10.3 30.6 19.8 42.5 28.7.5.3 1 .6 2.1 1.5 20.4 15.2 40.7 32 61.8 51.3 4.5 4.1 8.7 8.3 12.9 12.6l6.7 6.6c15 14.7 26.2 26.2 36.2 37.2 7.1 7.9 13.9 15.9 20.7 24 10.7 12.8 20.1 24.6 28.9 36.1 5 6.7 10 13.2 14.8 20 .5.6.8 1.3 1 2.1 26.6 95.4 55.5 192.1 88.4 295.6.9 2.8-.2 5.8-2.6 7.5-254.9 176.6-446.4 394.7-569.2 648.2M15918.5 13676.1l-14.2 1.4c-34 3.4-68.1 6.7-101.6 10.6-492 57.4-932.6 193.8-1274.1 394.3-1.8 1.1-4.1 1.3-6 .5-2-.9-3.4-2.6-3.9-4.6-23.4-93.2-46-187.2-67-279.2-.2-.6-.2-1.3-.2-1.9l.2-2.5c1.1-15.9 2.7-31.7 4.5-46.8 1.3-10.1 2.6-20.3 4.3-30.5 2.4-15.4 5.6-31.8 10-51.5l1.8-8.4c1.2-5.9 2.5-11.6 3.9-17.5 7.5-28.9 15.3-54.2 23.9-77.4 5.2-13.9 11-28 17.3-42 87.1-192.4 302.4-408.7 587.2-458.5 21.1-3.7 42.6-6.4 63.8-8.2 4.1-.3 8.1-.5 12.1-.6 2.6-.1 5.2-.1 7.8-.3l2.4-.1c12.4-.7 25.1-1.4 37.6-1.4 4.8.1 9.3.2 14 .4l6.6.3c12.1.4 26.3 1 40.4 2.3 6.2.6 12.3 1.4 18.4 2.2l3.1.4c11.9 1.5 23.7 3.1 35.2 5.2 7.3 1.3 14.3 2.8 22.3 4.6 11.1 2.3 22 5 32.9 7.9 7.2 1.9 14.3 4 21.5 6.1 10.8 3.3 21.4 7 31.9 10.7l3 1.1c5.7 2.1 11.5 4.2 17.1 6.4 10.8 4.3 21.4 9.1 31.9 13.8l4.3 2c4.5 2 9 4 13.4 6.1 10.9 5.4 22.4 11.6 36 19.3l4.5 2.4c2.2 1.2 4.4 2.3 6.5 3.6 14.7 8.7 29.8 18.3 44.7 28.6 2 1.4 3.8 2.9 5.7 4.3l3.7 2.8c12.1 8.6 22.8 16.6 32.5 24.5 3.4 2.7 6.7 5.5 9.9 8.3l4.2 3.6c8.6 7.3 17.1 14.6 25.2 22.2 3.6 3.2 6.9 6.5 10.3 9.8l4.3 4.2c7.5 7.4 14.9 14.8 22 22.3 4.7 5.1 9.3 10.1 13.9 15.3 6.8 7.7 13.5 15.5 20 23.4l1.6 2c3.7 4.5 7.4 9 10.9 13.6 6.4 8.2 12.6 16.6 18.6 25.1l3.4 4.8c2.6 3.5 5 6.9 7.3 10.4 6.4 9.4 12.3 19 18.2 28.6l2.8 4.4c1.7 2.8 3.5 5.6 5.2 8.4 8.7 15.2 16.2 29.1 23 42.9 8.2 16.6 16.2 35.5 25 59.5 3.1 8.3 6 16.8 8.9 25.4q5.85 18 11.1 36.9c8.8 31.8 15.6 61.5 20.8 90.6.3 1.9-.1 3.8-1.3 5.2-1.1 1.6-2.8 2.5-4.7 2.7M5236.64 14167.3l-.53 6.9c-1.52 19.6-3.05 35.4-4.83 49.7l-1.68 11.4c-.11.6-.27 1.3-.53 1.9-42.36 95.9-87.6 195-134.48 294.3-.89 1.9-2.62 3.2-4.67 3.7-2 .4-4.2-.1-5.78-1.4-334.44-284.4-768.34-512.5-1326.48-697.2-1.74-.6-3.16-1.9-3.95-3.5a6.9 6.9 0 0 1-.31-5.2c5.78-16.3 12.14-31.9 18.29-47l1.05-2.7c3.52-8.5 7.04-17.1 10.67-25.5 5.88-13.4 11.98-26.3 18.23-39 5.99-12.1 12.25-23.6 18.55-35.1l2.78-5c4.1-7.5 8.21-15 12.56-22.1 13.83-22.7 26.65-41.7 39.47-58.5 8.36-10.9 17.71-22.3 29.48-35.8 3.16-3.7 6.41-7.2 9.62-10.7 7.94-8.7 16.03-17.3 24.49-25.7 3.36-3.4 6.67-6.8 10.14-10.2 12.66-12.3 24.49-23 36.94-33.7 10.99-9.2 23.07-18.8 38.05-30.1 4.05-2.9 8.09-5.9 12.14-8.7 10.03-7.2 20.29-14.2 30.74-21l4.1-2.6c2.78-1.9 5.57-3.7 8.46-5.5 16.45-10.2 30.43-18.3 43.93-25.5.06 0 1.47-.8 1.53-.8 13.82-7.3 28.48-14.4 44.87-21.8 2.89-1.3 5.84-2.5 8.84-3.8l5.09-2.2c11.88-5 23.91-9.7 36.05-14.2l3.21-1.2c3.67-1.3 7.35-2.7 11.08-4 18.4-6.2 34.85-11.3 50.29-15.4l2.32-.5c15.08-3.9 31.32-7.4 49.66-10.8 4.04-.7 8.14-1.4 12.24-2.1l3.42-.5c13.14-2.1 26.43-3.8 39.78-5.2l4.25-.5c3.79-.3 7.57-.7 11.41-1.1 19.81-1.5 37.73-2.3 54.76-2.3 8.56 0 17.29.6 26.01 1.1l17.44.8c6.26.2 12.51.4 18.87 1 8.99.8 18.03 2.2 27.06 3.6l9.41 1.5 9.3 1.2c5.89.7 11.67 1.4 17.56 2.5 11.24 2.1 22.54 4.9 33.84 7.8l7.77 1.9c2.95.8 5.84 1.4 8.78 2 4.57 1 9.2 2 13.82 3.3 21.86 6.2 43.67 13.5 64.8 21.6 34.94 13.5 69.26 29.8 101.89 48.4 211.99 120.6 373.16 347.9 410.68 580.1 4.31 26.6 7.2 54.1 8.94 84.2.31 5.8.31 11.7.31 17.6 0 3.5 0 7.1.11 10.6.37 16.8.73 36.3-.11 55.4-.31 8.6-1.05 17.1-1.73 25.6M6645.04 15128.2c-2.31 5.4-4.83 10.7-7.35 16.1l-2.32 4.8c-7.46 16-15.39 31.9-23.54 47.2-4.2 7.7-8.35 15.5-12.82 23.2-8.62 15.1-18.5 31.3-30.27 49.6-1.68 2.7-3.31 5.3-4.94 7.9-2.21 3.6-4.41 7.1-6.83 10.7-13.87 20.8-29.43 42.4-46.09 64.3-4.57 6.1-9.45 12.2-14.34 18.2l-6.52 8.1c-10.56 13.3-21.39 26.6-32.63 39.9-8.99 10.6-18.24 21.2-27.65 31.7-10.13 11.4-20.65 22.8-31.37 34.2l-7.41 7.9c-8.09 8.7-16.13 17.3-24.64 26-7.2 7.3-14.82 14.7-22.39 22.1l-6.67 6.5c-25.39 25-51.4 49.4-77.3 72.7l-7.73 7c-4.73 4.3-9.46 8.6-14.29 12.8-16.72 14.8-33.95 29.4-51.45 44-6.36 5.4-12.83 10.8-19.34 16.2l-1.84 1.5c-19.02 15.6-38.15 31.1-58.02 46.8l-5.93 4.5c-69 53.8-143.57 107.7-221.56 160l-6.78 4.6c-26.32 17.6-52.96 35-80.19 52.4-1.84 1.2-4.36 1.5-6.41.6-2.52-1-4.15-3.5-4.1-6.3 4.84-345.3-72.52-647.1-229.8-897.2-97.22-154.3-213.67-295.6-356.03-431.9-2.21-2.1-2.68-5.4-1.21-8.1 54.34-97.7 107.57-197.6 158.28-296.8.37-.6 1.63-2.1 2.21-2.6 8.36-7.9 16.71-15.9 25.33-23.7 12.61-11.3 25.64-22.1 37.78-31.9l5.36-4.4c6.73-5.5 13.46-11 20.45-16.2 15.24-11.6 31.53-22.4 45.61-31.7 3.15-2 6.2-4.1 9.25-6.2 4.67-3.2 9.41-6.5 14.29-9.5 26.33-16.1 51.03-29.5 75.57-41.2 20.81-9.9 44.04-19.2 71.05-28.4l4.1-1.5c1.99-.7 3.99-1.5 6.04-2.2 22.55-7.3 46.46-13.8 73.15-19.8 4.57-1 9.25-2 13.87-3 25.65-5.3 51.56-9.4 77.09-12.2l12.72-1.2c30.38-2.8 57.6-4.3 83.3-4.3 2.26 0 4.57.1 6.82.2l5.26.2c14.71.1 29.43.5 44.25 1.4 4.2.3 8.41.7 12.66 1.1l8.25.7c12.04 1.1 24.02 2.2 36.16 3.7 5.09.7 10.2 1.5 15.35 2.3l7.77 1.2c11.3 1.7 22.6 3.6 33.95 5.8 7.99 1.6 15.97 3.4 23.91 5.2 11.09 2.5 22.07 5.2 33 8.1 7.99 2.2 15.98 4.5 23.97 6.8 10.98 3.3 21.85 7 32.63 10.7 7.78 2.7 15.55 5.4 23.28 8.3 11.09 4.2 22.02 9 32.95 13.7l6.67 2.9c5.05 2.1 10.04 4.3 15.03 6.6 11.82 5.6 23.49 11.7 35 17.9l6.78 3.6c3.83 1.9 7.62 3.8 11.35 6 17.66 10.1 34.53 20.6 51.08 31.8 205 140.2 318.09 366.9 310.31 622.2-2.26 73.2-14.5 144.4-36.37 211.7-6.46 19.8-14.86 41.6-25.75 66.7M8356.19 18008.4c19.45 2.4 39.47 5.5 59.65 9l6.57 1.1c2.83.4 5.68.9 8.51 1.4 23.54 4.5 47.93 9.9 72.47 16.2 3.52.9 7.04 1.9 10.56 2.9l7.15 2c19.18 5.2 38.2 10.9 56.59 17 6.84 2.3 13.62 4.5 20.29 6.8 27.48 9.6 50.19 18.4 71.31 27.5 122.71 52.6 231.65 124.7 323.87 214.3 120.23 116.8 209.94 260.4 266.59 426.9 13.29 39.1 23.02 72 30.48 103.3 12.98 54.1 22.18 109.5 27.27 164.6 7.62 81.2 6.62 162.1-2.83 240.4-3.21 26.6-8.1 55.8-14.93 89.2l-1.26 6.4c-.58 3-1.16 5.9-1.79 8.8-6.25 28.9-13.82 58.6-22.44 88.4l-4.52 15.1c-10.35 34.3-20.7 65.1-31.58 94.1l-.15.5c-11.78 31.6-25.23 64.5-41.15 100.4l-2.79 6.4c-15.24 34.1-31.74 68.3-49.66 103.2l-2.31 4.5c-195.86 379.2-551.89 806.1-1029.67 1234.5-1.69 1.6-4.1 2-6.36 1.5-2.26-.7-4-2.4-4.58-4.7-172.52-631.9-485.2-1155.4-929.35-1556.1-78.46-70.9-164.22-141-254.77-208.5-2.31-1.8-3.26-4.8-2.36-7.6 60.01-182.9 117.61-371 171.26-559 .16-.6.37-1.1.68-1.6 43.93-73.8 87.76-137.8 133.95-195.5 72.84-91.1 150.98-167 239-232.2 20.08-14.8 42.36-29.8 68.22-45.8 5.15-3.3 10.51-6.4 15.87-9.5l6.25-3.6c17.65-10.4 35.42-20.3 52.71-29.3 8.46-4.3 16.97-8.7 25.64-12.9 19.03-9.3 39.04-18.3 59.43-26.9l8.47-3.7c4.15-1.8 8.3-3.6 12.5-5.3 27.33-11 55.45-21.2 83.56-30.2 3.62-1.2 7.35-2.2 11.09-3.3l7.46-2.2c24.75-7.6 47.45-13.8 69.26-19.2 9.83-2.4 19.76-4.7 29.69-6.9 20.65-4.6 42.04-8.8 63.59-12.5l7.19-1.3c7.52-1.3 14.99-2.6 22.5-3.7 26.17-4 53.18-7.2 80.35-9.6 1.94-.1 3.88-.4 5.78-.6 2.41-.3 4.83-.5 7.25-.8 29.32-2.3 60.17-3.5 94.28-3.7 4.1-.1 8.09-.1 12.03-.1 21.39 0 39.99.4 57.75 1.3l9.62.6c20.23 1.2 41.25 2.9 64.38 5.4 7.19.8 14.29 1.7 21.43 2.6M6810.32 19138.3c-.58 2.1-2.11 3.8-4.16 4.5-1.99.7-4.36.5-6.09-.7-585.41-401.2-1312.13-645.2-2160.04-725.2-3.68-.4-6.36-3.6-6.09-7.2 1.68-21.4 3.78-42.3 5.99-63.1 3.25-31.2 6.62-58.1 10.24-82.4 2.47-16.4 5.31-32.4 8.31-49.2 6.3-35.3 12.14-64 18.44-90.3 1.58-6.6 3.31-13 5.1-19.5l2.52-9.4c9.73-37 19.29-68.9 29.27-97.3.79-2.3 1.69-4.5 2.58-6.8l1.84-4.8c13.66-37.6 27.54-70.4 42.25-100.4 10.25-20.8 21.81-42.2 35.31-65.5 2.52-4.3 5.21-8.6 7.89-12.8l4.99-8c7.25-11.9 16.97-27.7 27.58-43.4 4-5.9 8.1-11.7 12.25-17.5l4.78-6.6c9.25-13 18.6-25.8 28.48-38.5 5.79-7.5 11.88-14.9 17.92-22.3l1.79-2.2c9.99-12.2 20.18-24.2 30.74-36 7.1-8 14.35-15.9 21.7-23.8 10.99-11.7 22.34-23.1 33.85-34.3l3.78-3.7c6.31-6.2 12.61-12.4 19.13-18.4 13.24-12.3 27.01-24.1 38.68-34.1l6.88-5.8c5.05-4.3 10.09-8.7 15.35-13 14.03-11.2 29.42-22.9 49.82-37.6 2.15-1.5 4.25-3.1 6.35-4.7 2.95-2.3 5.84-4.4 8.83-6.5 22.65-15.7 45.93-30.7 69.16-44.3 3.15-1.9 6.41-3.7 9.67-5.4 2.73-1.4 5.46-2.9 8.14-4.4 21.86-12.4 38.89-21.4 55.24-29.5 6.04-3 12.29-5.8 18.55-8.6l8.82-3.9c18.92-8.8 34.63-15.5 49.4-21.5 9.09-3.6 18.34-6.9 27.64-10.3l3.73-1.3c18.77-6.8 34.37-12 49.14-16.5 11.09-3.4 22.28-6.6 33.53-9.6 15.18-4.1 31.84-8.1 50.91-12.3 11.46-2.4 22.87-4.9 34.48-7 18.6-3.4 37.1-5.8 54.29-8l8.82-1.2c8.3-1.1 16.66-2.2 25.07-2.9 20.65-2 41.93-2.8 62.01-3.6 3.78-.1 7.57-.3 11.29-.5 6.63-.3 13.15-.6 19.97-.6 19.87 0 40.31 1.1 60.07 2.2l2.31.2c4.21.2 8.41.3 12.56.4 6.31.2 12.62.4 19.08.9 33.74 2.9 67 7.2 98.9 12.8 161.64 28.2 316.56 91.7 460.55 188.6 110.83 74.6 209.42 165.3 293.08 269.4 32.11 40 61.74 81.8 88.07 124.2 12.88 20.8 25.33 42.3 37 64.1 23.12 43.1 42.88 86.9 58.8 129.9 38.47 103.7 62.54 211.7 73.57 329.9 6.94 74.9 8.46 153 4.42 240.2-42.94 175.7-88.19 349-134.53 515.1"
    style="fill:#8cd35d;fill-opacity:1;fill-rule:nonzero;stroke:none" transform="matrix(.13333 0 0 -.13333 0 3052)" />
  <path
    d="M13314.8 5579.1c-307.5 0-556.7-249.3-556.7-556.8 0-307.4 249.2-556.7 556.7-556.7s556.7 249.3 556.7 556.7c0 307.5-249.2 556.8-556.7 556.8M6276.65 5579.1c-307.47 0-556.73-249.3-556.73-556.8 0-307.4 249.26-556.7 556.73-556.7s556.73 249.3 556.73 556.7c0 307.5-249.26 556.8-556.73 556.8"
    style="fill:#f14b4e;fill-opacity:1;fill-rule:nonzero;stroke:none" transform="matrix(.13333 0 0 -.13333 0 3052)" />
  <path
    d="M13472 5415.4c-28.4-23.4-41.5-61.7-36.7-107.9 4.7-45.1 25.9-92.6 59.8-133.7 33.8-41.1 76.4-71 119.8-84.3 16-4.9 31.4-7.3 46-7.3 25.8 0 48.7 7.6 66.9 22.6 57.7 47.6 47.4 155.9-23.1 241.5s-174.9 116.6-232.7 69.1M5997.04 5430.6c-43.4-13.2-85.97-43.1-119.81-84.3-70.52-85.6-80.93-193.9-23.12-241.5 18.13-15 41.09-22.6 66.89-22.6 14.56 0 29.96 2.4 45.98 7.3 43.41 13.3 85.98 43.2 119.82 84.3s55.07 88.6 59.75 133.7c4.78 46.2-8.25 84.5-36.68 107.9-28.37 23.3-68.58 28.7-112.83 15.2M4809.77 5016.8c-16.29 148.8-29.59 300.5-42.46 447.1-11.88 135.4-24.12 275.2-38.89 414.9-17.6 165.9-167.16 286.8-332.85 269.1-165.96-17.6-286.72-166.9-269.17-332.9 13.83-130.2 25.23-260.1 37.26-397.6 13.24-150.9 26.96-307 44.35-466.4 40.47-370 91.44-663.2 165.33-950.7 20.12-78.3 69.52-144.1 139.15-185.2 47.25-28 99.95-42.3 153.45-42.3 25.33 0 50.76 3.2 75.93 9.7 78.31 20.1 144.05 69.5 185.19 139.1 41.15 69.6 52.71 151.1 32.59 229.4-66.43 258.4-112.62 525.4-149.88 865.8M4372.66 6370.7c3.46 0 6.99.1 10.45.2 166.8 5.7 297.86 146 292.18 312.8-2.62 76.9-3.89 151.3-3.89 227.4 0 44.1.43 88.2 1.32 130.9 3.31 166.9-129.7 305.4-296.54 308.7-2.05.1-4.11.1-6.15.1-164.17 0-299.28-131.8-302.59-296.6-.95-47.9-1.42-96-1.42-143.1 0-83.7 1.42-167.1 4.26-248.1 5.57-163.3 140.2-292.3 302.38-292.3M15484.3 12173.4h-3.5l-61.6-.5c-81.1-.8-371.8-3.4-707.3-3.4h-9c-308.1 0-727.5 2.4-995.6 13.3-4.2.2-8.5.3-12.7.3-76.2 0-148.5-28.2-204.8-80.1-59.4-54.8-94-129.5-97.3-210.3s25.1-158 79.9-217.4c54.8-59.5 129.4-94.1 210.2-97.4h.9c225.7-9.1 571.7-13.8 1028.4-13.8 383.1 0 711.9 3.3 775.6 4 166.9 1.9 301.2 139.2 299.3 306.1-1.9 165.7-137.2 299.2-302.5 299.2M13012.4 12181.2l-8.9-.1h-1c-16.3 0-46.6 1.2-81.5 2.6-38 1.6-82.8 3.2-133.6 3.2-58.3 0-112.7-2.2-166.2-6.7-166.2-14.1-290-160.9-276-327.2 13.4-157.7 146-277.1 301.5-277.1 8.5 0 17.1.4 25.7 1 36.2 3.1 73.8 4.7 115 4.7 39.3 0 76.9-1.4 109.1-2.7l18-.8c29.7-1.2 57.8-2.4 89-2.4q12.75 0 26.1.3c80.7 2.4 155.8 35.9 211.4 94.7 55.5 58.8 84.8 135.7 82.5 216.5s-35.9 155.9-94.7 211.4-135 85-216.4 82.6"
    style="fill:#fff;fill-opacity:1;fill-rule:nonzero;stroke:none" transform="matrix(.13333 0 0 -.13333 0 3052)" />
  <path
    d="M18064.9 12789.1c-111.8 0-162.6-87.2-162.6-168.2 0-43.9 14.4-84.9 40.5-115.3 29.7-34.6 71.9-52.8 122.1-52.8 111.8 0 162.7 87.2 162.7 168.3 0 43.8-14.5 84.8-40.6 115.3-29.7 34.5-71.9 52.7-122.1 52.7M17249 14181.2c-111.8 0-162.7-87.2-162.7-168.2 0-43.9 14.5-84.8 40.6-115.3 29.7-34.5 71.9-52.8 122.1-52.8 111.7 0 162.6 87.3 162.6 168.3 0 43.9-14.4 84.8-40.5 115.3-29.7 34.5-71.9 52.7-122.1 52.7M18420.7 13980.2c-111.8 0-162.7-87.3-162.7-168.3 0-80.9 50.9-168 162.7-168 111.7 0 162.7 87.2 162.7 168.2 0 43.9-14.5 84.8-40.7 115.3-29.6 34.5-71.8 52.8-122 52.8M3522.97 17892.9c0 43.9-14.4 84.8-40.58 115.3-29.63 34.5-71.83 52.7-122.07 52.7-111.78 0-162.69-87.2-162.69-168.2 0-43.9 14.45-84.8 40.62-115.3 29.63-34.5 71.83-52.8 122.07-52.8 111.77 0 162.65 87.3 162.65 168.3M2707.02 19285.1c0 43.8-14.4 84.8-40.57 115.3-29.64 34.5-71.84 52.7-122.08 52.7-111.77 0-162.65-87.2-162.65-168.3 0-43.8 14.4-84.8 40.58-115.3 29.63-34.5 71.83-52.7 122.07-52.7 111.78 0 162.65 87.2 162.65 168.3M3878.73 19083.9c0 43.9-14.4 84.9-40.56 115.3-29.64 34.6-71.84 52.8-122.08 52.8-111.77 0-162.64-87.2-162.64-168.3 0-43.8 14.39-84.8 40.57-115.3 29.63-34.5 71.83-52.7 122.07-52.7 111.78 0 162.64 87.2 162.64 168.2M16948.3 11816.6l7.8-15.8c5.5-10.9 10.8-21.8 15.6-32.9 5.3-12 9.9-24.6 14.3-36.8l6.7-17.7c3.7-9.9 7.5-19.8 10.7-29.9 4.1-13 7.6-26.6 10.9-39.8l2.7-10.4c1.2-4.4 2.3-8.8 3.5-13.2 2.3-8.2 4.5-16.4 6.3-24.7 3.5-16.9 6-34.6 8.4-51.7l1-7.4c.7-4.5 1.4-8.8 2.1-13.2 1.1-6.3 2.2-12.6 2.9-19.1 3.1-30.3 4.7-61.2 4.9-91.6l.1-1516.3c0-346.5-199.4-664.6-520.3-830.2-28.5-14.8-57.7-28.1-86.9-39.8-60-24.1-122.8-42.6-186.7-55-65.6-12.8-133-19.3-200.4-19.3H3539.62c-67.42 0-134.89 6.5-200.53 19.3-31.48 6.1-63.53 13.9-95.27 23.2-76.46 22.6-152.4 55.9-225.6 98.9-21.23 12.5-39.84 24.2-56.81 35.7-48.19 32.9-89.07 65.4-125.01 99.7-187.72 178.3-291.08 415.4-291.08 667.5V11410c0 30.6 1.68 62.3 4.99 94.1.68 6.3 1.68 12.4 2.73 18.6.74 4.2 1.42 8.5 2.05 12.7l1.05 7.5c2.47 17.4 4.99 35.4 8.57 52.5 1.78 8.6 4.1 17 6.41 25.3 1.1 4.1 2.21 8.1 3.26 12.1l2.26 8.9c3.47 13.9 7.09 28.2 11.4 41.8 3 9.5 6.51 18.7 10.04 28l7.88 21c4.42 11.9 8.77 23.8 13.82 35.4 4.57 10.7 9.72 21.1 14.92 31.5l7.47 15.2c5.51 11.3 11.03 22.6 17.13 33.6 6.94 12.6 14.71 25 22.22 37.1l5.47 8.8c6.26 10 12.45 20 19.18 29.8 9.46 13.9 19.6 27.2 30.48 41.4 7.57 9.9 15.14 19.7 23.02 29.3 12.3 14.8 25.01 28.6 35.79 40.2l2.05 2.2c7.25 7.7 14.5 15.4 22.07 22.9 12.13 12.2 25.38 24.6 41.56 39 7.89 7 15.82 13.9 23.92 20.7 15.13 12.5 31.21 25.1 47.71 37.2 7.57 5.6 15.24 11 23.02 16.4a1013 1013 0 0 0 53.81 34.8c5.73 3.4 11.56 6.7 17.34 10l4.21 2.4c21.81 12.3 41.51 22.7 60.22 31.7 5.31 2.5 10.77 4.9 16.24 7.4l3.15 1.4c24.28 11 46.04 20.1 66.53 27.8 2.78 1 5.67 2 8.51 2.9l8.09 2.8c26.44 9.3 50.35 16.9 73.16 23 2.47.7 4.94 1.3 7.4 1.9l5.63 1.3c29.48 7.6 55.65 13.3 80.13 17.5q1.83.3 3.63.6c1.42.2 2.89.3 4.2.6 31.06 5.1 59.86 8.7 88.13 11 30.7 2.4 56.66 4 83.45 4H16051.9c28.3 0 56.8-1.9 83.4-4 28.3-2.3 57.1-5.9 88-11 1.4-.3 2.9-.4 4.3-.6 1.2-.2 2.5-.4 3.7-.6 25-4.3 51.2-10.1 80.2-17.5l5.5-1.3c2.5-.6 5-1.2 7.4-1.9 22.6-6.1 46.5-13.6 73.1-22.9 2.9-1.1 5.7-2 8.5-3 2.8-.9 5.5-1.9 8.1-2.8 20.6-7.7 42.3-16.8 66.7-27.8l2.1-1c5.8-2.6 11.5-5.1 17.2-7.8 19.9-9.7 40.2-20.3 60.2-31.7 7.2-4.1 14.4-8.2 21.5-12.4 18.4-11.1 36.5-22.8 53.9-34.8 7.8-5.4 15.4-10.8 22.9-16.4 16.4-12 32.5-24.5 47.8-37.2 8.1-6.8 16-13.7 23.9-20.6 15.6-13.9 29.2-26.7 41.7-39.1 8.2-8.2 16-16.6 23.9-25.1 14.8-15.8 25.9-28.3 35.9-40.3 7.9-9.5 15.4-19.3 23.3-29.7 10.5-13.6 20.7-27 30.3-40.9 6.2-9.1 11.9-18.3 17.7-27.6l7.7-12.4c7.3-11.8 14.7-23.6 21.4-35.8 5.7-10.3 10.9-20.9 16.1-31.5m-1181.2-5151.4c-.5-131.9-2.1-262.6-4.7-388.9-.9-43.6-1.9-87.5-3.1-131.4-17.1-642.5-61.2-1208-131.1-1680.8-5.9-40.4-12.1-80.3-18.6-119.8-121.8-749.5-313.3-1253.9-569.1-1499.3-1060.5-1017.2-3021.2-1624.5-5244.79-1624.5-2223.57 0-4184.23 607.3-5244.96 1624.8-17.55 16.8-36.05 36.6-56.6 60.3-3.83 4.4-7.56 9-11.35 13.6l-4.62 5.7c-13.61 16.6-27.07 34-39.94 51.6l-2.1 2.9c-4.31 5.9-8.62 11.8-12.93 18-16.29 23.3-31.8 47.2-46.2 70.8l-4.04 6.4c-16.87 28.1-33.84 58.6-50.5 90.8l-4.1 8.1c-14.24 27.8-28.69 57.9-43.04 89.6-1.68 3.7-3.31 7.5-4.99 11.2l-1.16 2.7c-598.07 1346.8-443 4500.6-380.3 5446.1H15702.6c26-391 68.4-1172.6 64.5-2057.9M14188.7 13749c-4.1-4.1-8.2-8.2-12.5-12.1-20.8-19.1-40.7-35.6-60.8-50.5l4-5.4-5.6 4.3c-12.1-9.1-25.9-18.3-42.2-28.4-2.8-1.8-5.7-3.5-8.6-5.2l-5.7-3.3q-16.05-9.45-33-18.3c-5.5-2.8-10.9-5.6-16.5-8.3-12.1-6-24.7-11.6-37.4-16.9l-5.6-2.5c-2.6-1.2-5.2-2.3-7.8-3.4-17.9-7.1-35.8-13.5-53-19.1-2.4-.7-4.7-1.4-7.1-2.1l-4.9-1.4c-14.7-4.5-29.4-8.6-43.7-12.2-6.3-1.5-12.6-2.9-18.9-4.3-13.3-3-26.8-5.6-40.3-8l-6-1c-4.2-.7-8.5-1.5-12.8-2.1-16.8-2.6-34-4.6-51.1-6.1l-8.2-.8c-18.7-1.6-38.9-2.4-60-2.5l-4.8-.2c-1.6 0-3.2.1-4.8.2-1.7.1-3.3.3-5 .3-18.4.2-36.9 1.1-54.9 2.6l-5.7.4c-3.8.3-7.4.6-11.2.9-23.7 2.5-45.5 5.6-66.7 9.6-1.5.3-3 .6-4.5 1-1.7.4-3.4.8-5 1.1-18.4 3.8-37.7 8.6-57.5 14.4-5.9 1.7-11.8 3.4-17.6 5.2-25.5 8.1-46.2 15.7-65.1 23.9-58.7 25.1-112.7 57.6-160.7 96.3-30.3 24.6-58.5 51.9-83.8 81.3-24.3 28.2-46.6 59-66.2 91.5-28.1 46.8-50.9 97.2-67.6 150-21.5 67.3-33.1 137.2-34.8 207.8-.8 33.8.9 67.6 4.9 100.5 2.4 20.1 6.3 42.1 11.8 67.3 1 4.7 2.2 9.4 3.4 14.1l2 7.8c4.4 17.7 8.7 33.4 13.2 48 2.7 8.5 5.4 17 8.3 25.6 5.1 15.2 11.1 31.3 17.7 47.9l3.2 8.1c2.1 5.6 4.2 11.1 6.5 16.6 10.4 24.6 20.8 47.4 31.8 69.8 2.4 4.9 5 9.8 7.6 14.7l5.3 9.9c8.3 16.1 16.7 32 25.9 48.2 6.7 12 13.8 24 21 36 7.4 12.5 15 24.9 22.8 37.4 8.4 13.3 16.9 26.7 25.8 40.1 7.1 10.7 14.6 21.5 22 32.2 37.6 54.7 80 110.8 125.9 166.9l13.3 16.3c15.6 18.7 31.6 37.6 48 56.3l14.2 16.2c17.5 19.9 35.4 39.8 53.8 59.7l2.9 3.1c62.1 67 130.4 135.4 202.7 203.4.1 0 .1 0 .1.1 104 97.6 215.6 193.7 331.7 285.8 198 157.1 434.6 240.2 684.1 240.2 473.9 0 892.7-301 1042.1-748.8 225.5-676 297.8-1232.9 203.6-1567.9-3.4-12.4-7-24.5-11-36.3-2.7-8.3-5.5-16.8-8.6-24.9-8.7-23.6-16.5-42.1-24.7-58.8-6.4-13-13.8-26.6-22.4-41.5-1.6-2.7-3.2-5.3-4.9-8l-2.9-4.6c-5.7-9.4-11.5-18.8-17.8-28.1-2.3-3.4-4.7-6.7-7-10l-3.6-4.9c-5.8-8.4-11.9-16.6-18.2-24.7-3.5-4.5-7.1-8.9-10.7-13.3l-1.6-2c-6.4-7.8-13-15.4-19.7-23-4.5-5-8.9-10-13.6-14.9-7-7.5-14.3-14.8-21.6-22l-4.3-4.2c-3.3-3.2-6.6-6.4-10-9.5-8-7.5-16.3-14.7-24.8-21.8l-4.3-3.7c-3.1-2.7-6.2-5.4-9.5-8-9.6-7.7-20-15.6-32-24.1l-3.9-3c-1.8-1.3-3.5-2.7-5.3-3.9-14.6-10.2-29.4-19.6-43.9-28.1-1.9-1.2-3.9-2.2-5.9-3.3l-4.8-2.6c-13.4-7.6-24.7-13.6-35.4-18.9-4.2-2.1-8.5-4-12.8-5.9l-4.4-2c-10.3-4.8-20.7-9.4-31.4-13.6-5.5-2.2-11.1-4.2-16.7-6.2l-3-1.1q-15.45-5.55-31.2-10.5c-7-2.1-14-4.1-21.1-6-10.6-2.9-21.4-5.4-33.1-8-6.9-1.5-13.8-3-20.9-4.2-11.4-2.1-22.9-3.7-34.6-5.1l-3.2-.4c-5.9-.8-11.8-1.7-17.9-2.2-13.6-1.3-27.6-1.8-39.5-2.2l-6.9-.3c-3.6-.2-7.3-.4-11-.4l-3.8-.2c-10.1 0-20.4.6-30.7 1.3l-7 .4c-2.8.1-5.5.2-8.3.3-3.7.1-7.4.1-11.2.5-21.5 1.8-42.5 4.5-62.7 8.1-279.9 48.9-491.6 261.6-577.2 450.7-6.2 13.8-11.9 27.6-16.9 41.2-8.5 22.7-16.2 47.6-23.5 76-1.5 5.6-2.6 11.3-3.8 16.9l-1.9 8.7c-4.3 19.4-7.5 35.4-9.9 50.6-1.5 10-2.9 20.1-4.1 30.1-1.9 14.9-3.4 30.4-4.5 46l-.1 1.3c21 91.7 43.4 185.2 66.7 278.1 55.6 220.9 117.1 442.8 182.6 659.3 12.6 36.9-7.4 63.4-32.8 73.2-26.4 10.2-61.2 3.2-76.1-30.6-80.8-193-153.9-393.1-223.4-611.7-32.8-103.1-61.7-199.6-88.5-296.1-2.5-3.4-5.1-6.7-7.8-10l-5.9-7.6c-8.5-11.3-17.9-22.9-28.4-35.5-6.7-7.9-13.4-15.9-20.4-23.6-9.8-10.9-20.8-22.2-35.7-36.7zm-8681.53 474.8c-3.16 2.1-6.31 4.3-9.52 6.4-13.87 9.1-29.89 19.8-44.87 31.1-6.83 5.1-13.45 10.5-20.02 16l-5.36 4.3c-12.04 9.8-24.91 20.3-37.32 31.5-8.56 7.7-16.81 15.5-24.95 23.3 0 .1-.06.1-.11.2-50.61 99-103.79 198.7-157.96 296.2-104.85 188.7-215.2 373.1-328.19 548.4-22.96 32.2-56.28 31.3-79.24 16.1-23.44-15.6-38.1-48.7-19.34-79 102.26-185 201.11-378.8 302.11-592.6 46.88-99.2 92.07-198.1 134.53-294 .26-1.5.37-3.2.53-4.7.1-1.7.26-3.2.47-4.8 1.79-14.3 3.26-29.4 4.73-49.1l.58-6.9c.68-8.3 1.36-16.6 1.68-25.1.84-18.7.47-37.9.1-54.5-.1-3.7-.1-7.3-.1-10.9 0-5.6 0-11.2-.32-16.9-1.68-29.6-4.57-56.7-8.82-83.9-36.84-227.3-195.39-450.8-403.96-569.5-32.11-18.3-65.79-34.2-100.11-47.5-20.76-7.9-42.14-15-63.64-21.1-4.36-1.3-8.67-2.2-12.98-3.1-3.05-.7-6.09-1.4-9.2-2.2l-7.83-1.9c-10.98-2.8-22.01-5.6-32.99-7.6-5.58-1-11.15-1.7-16.66-2.4-3.21-.3-6.42-.8-9.67-1.2l-9.57-1.5c-8.77-1.3-17.5-2.7-26.22-3.5-6.04-.6-12.04-.7-18.02-.9l-17.87-.9c-23.91-1.4-49.19-1.2-78.88 1.3-3.73.3-7.36.7-11.09 1l-4.25.5c-13.14 1.3-26.12 3.1-39.05 5.1l-3.42.5c-3.99.7-7.93 1.3-11.93 2-17.97 3.4-33.89 6.8-48.55 10.6l-2.36.6c-15.2 4-30.91 8.7-49.4 15.1-3.63 1.2-7.2 2.5-10.72 3.8l-3.26 1.3c-11.98 4.3-23.81 9-35.42 13.9l-5.15 2.2c-2.89 1.2-5.78 2.5-8.62 3.7-16.08 7.3-30.48 14.3-43.93 21.4-.05 0-1.47.7-1.53.7-13.34 7.1-27.06 15.1-43.25 25.2-2.78 1.6-5.51 3.4-8.19 5.2l-4.16 2.7c-10.3 6.7-20.28 13.5-30.21 20.6-3.99 2.9-8.04 5.7-11.93 8.6-14.77 11.1-26.64 20.5-38.2 30.3-11.04 9.4-22.65 20-35.42 32.3-3.36 3.3-6.63 6.6-10.04 10.2-8.31 8.2-16.24 16.5-24.07 25.2-3.15 3.4-6.3 6.8-9.36 10.4-11.61 13.3-20.8 24.5-29.32 35.7-12.24 15.9-24.75 34.5-38.36 56.8-3.57 5.9-6.98 12.2-10.4 18.4l-4.63 8.3c-6.2 11.2-12.35 22.6-18.23 34.5-6.25 12.4-12.19 25.3-17.97 38.4-3.58 8.3-7.1 16.7-10.57 25.2-135.16 330-161.7 884.1-74.83 1560.3 72.26 563 555.88 987.6 1124.9 987.7 182.09 0 357.97-43.2 522.88-128.3 149.39-77 293.12-159.5 426.13-244.2.42-.4.84-.7 1.31-1 27.12-17.3 53.76-34.8 79.99-52.3l6.67-4.5c78.25-52.5 152.55-106.1 220.81-159.4l5.99-4.7c19.66-15.5 38.84-31 57.71-46.5l1.84-1.5c6.46-5.3 12.87-10.7 19.28-16.1 17.39-14.5 34.53-29.1 51.18-43.7 4.79-4.2 9.46-8.5 14.09-12.8l7.78-7c26.38-23.7 52.23-48 76.93-72.3l6.73-6.6c7.46-7.3 14.97-14.6 22.12-21.8 9.99-10.2 19.5-20.4 29.01-30.6l2.89-3.1c10.61-11.3 21.02-22.6 31.11-33.9 9.35-10.5 18.5-21 27.38-31.5 11.19-13.2 21.96-26.4 32.42-39.6l6.57-8.2c4.78-5.9 9.56-11.8 14.08-17.8 16.51-21.7 31.9-43.1 45.67-63.7 2.47-3.7 4.78-7.4 7.04-11.1l4.57-7.3c11.62-18 21.39-34.1 29.9-49 4.37-7.6 8.52-15.3 12.62-22.9 8.09-15.1 15.87-30.7 23.23-46.5l2.3-4.9c2.48-5.2 5-10.5 7.2-15.7 10.72-24.7 18.98-46.1 25.28-65.5 21.5-66 33.53-136 35.74-207.9 7.67-250.5-103.32-473.1-305.43-611.3-15.24-10.4-31.79-20.7-49.18-30.6-3.58-2-7.2-3.9-10.83-5.8l-6.99-3.6c-11.35-6.1-22.8-12.1-34.42-17.6-4.78-2.3-9.67-4.4-14.56-6.5l-6.73-2.8c-10.71-4.7-21.43-9.4-32.36-13.5-7.57-2.9-15.24-5.5-22.86-8.1-10.72-3.8-21.39-7.3-32.22-10.6q-11.655-3.6-23.49-6.6c-10.82-3-21.59-5.7-32.47-8.1-7.83-1.8-15.72-3.5-23.6-5.1-11.14-2.2-22.23-4-33.37-5.7l-7.83-1.3c-4.99-.8-9.98-1.5-14.97-2.2-11.88-1.4-23.76-2.5-35.58-3.5l-8.41-.8c-4.1-.4-8.2-.8-12.24-1.1-14.56-.9-29.07-1.2-43.51-1.4-1.74 0-3.53-.1-5.32-.2-1.88-.1-3.83-.2-6.61-.2-25.28.1-52.08 1.5-81.98 4.3l-12.61 1.1c-25.07 2.8-50.56 6.9-75.84 12.1l-13.66 2.9c-26.22 5.9-49.71 12.3-71.89 19.6-1.89.6-3.68 1.2-5.52 1.9l-4.36 1.6c-26.54 9.1-49.34 18.2-69.68 27.9-24.12 11.4-48.4 24.6-74.3 40.5-4.74 2.9-9.2 6-13.72 9.1m1591.76 4439.6c-53.61 187.9-111.15 375.9-171.11 558.7-78.72 240.2-163.33 478-251.4 706.9-11.67 28.6-43.52 43.3-72.89 33.5-15.08-5-27.17-15.7-34.05-30.2-6.94-14.5-7.62-31.3-2-45.9 79.25-235.8 156.6-488.7 229.91-751.7 46.24-166 91.49-339.2 134.21-513.4 3.79-85.3 2.32-162.8-4.52-237-10.98-117.1-34.79-223.9-72.83-326.5-15.71-42.5-35.26-85.6-58.07-128.3a1195 1195 0 0 0-36.58-63.3c-26.01-41.9-55.33-83.3-87.12-122.9-82.77-103-180.41-192.8-290.08-266.7-142.36-95.8-295.54-158.6-455.35-186.5-31.69-5.5-64.54-9.7-97.75-12.5-6.14-.6-12.24-.8-18.28-.9-4.31-.1-8.62-.3-12.93-.5l-11.77-.7c-15.35-.9-31.27-1.9-46.46-1.9l-2.57.1c-7.1.4-13.45.5-20.13.8-3.83.2-7.67.4-11.51.5-19.86.7-40.94 1.5-61.22 3.4-8.3.8-16.45 1.9-24.6 3l-8.87 1.1c-17.03 2.2-35.27 4.6-53.55 7.9-11.51 2.1-22.81 4.5-34.05 6.9-18.87 4.2-35.27 8.1-50.24 12.2-11.14 3-22.18 6.1-33.16 9.4-14.51 4.5-29.96 9.7-48.45 16.3l-3.74 1.4c-9.14 3.3-18.28 6.6-27.22 10.1-14.55 5.9-30.06 12.6-48.81 21.1l-8.94 4.1c-6.09 2.7-12.19 5.4-18.08 8.4-16.08 7.9-32.89 16.9-54.49 29.1-2.79 1.5-5.63 3.1-8.46 4.6-3.1 1.6-6.2 3.2-9.2 5-22.97 13.6-45.93 28.3-68.31 43.8-2.84 2-5.58 4.1-8.36 6.2-2.16 1.6-4.36 3.3-6.62 4.9-20.23 14.6-35.42 26.1-49.3 37.3-5.09 4.1-10.03 8.3-14.97 12.6l-6.94 6c-11.61 9.7-25.17 21.4-38.25 33.5-6.42 6-12.67 12.1-18.87 18.2l-3.78 3.7c-11.36 11.1-22.6 22.4-33.42 33.9-7.31 7.8-14.46 15.7-21.5 23.5-10.4 11.8-20.49 23.6-30.37 35.6l-1.79 2.2c-5.99 7.3-11.93 14.6-17.71 22.1-9.77 12.4-19.02 25.2-28.16 38l-4.79 6.7c-4.05 5.7-8.15 11.4-12.03 17.1-10.46 15.5-20.02 31.1-27.28 42.9l-5.09 8.2c-2.58 4.1-5.15 8.2-7.57 12.3-13.4 23-24.81 44.2-34.9 64.7-14.55 29.6-28.16 62-41.72 99.1l-1.95 5.1c-.78 2.1-1.63 4.2-2.36 6.3-9.88 28.2-19.39 59.7-28.95 96.3l-1.69 6.2c-1.99 7.5-4.04 14.8-5.88 22.4-6.26 26.1-12.04 54.5-18.29 89.5-2.89 16.1-5.78 32.3-8.2 48.9-3.62 24.1-6.93 50.9-10.25 81.8-2.2 20.6-4.2 41.5-5.88 62.7-40.57 527.8 88.34 1257.6 372.79 2110.5 232.91 698.2 885.85 1167.4 1624.86 1167.4 388.98 0 757.84-129.5 1066.57-374.4 669.13-530.8 1172.87-1085.3 1418.55-1561.7l2.99-5.7c17.87-34.9 34.22-68.9 48.61-101.1l2.79-6.5c16.13-36.4 29.53-69.1 40.93-99.9.06-.1.11-.3.17-.4 10.93-29.4 21.12-59.8 31.21-93.1l4.46-15c8.57-29.5 16.03-58.9 22.23-87.4.64-2.9 1.16-5.7 1.74-8.5l1.31-6.6c6.73-33.1 11.56-61.9 14.72-88.1 9.35-77.4 10.3-157.3 2.83-237.5a1164 1164 0 0 0-26.95-162.8c-7.41-30.9-17.03-63.3-30.17-102.1-56.02-164.4-144.56-306.3-263.22-421.5-91.18-88.6-198.75-159.8-319.82-211.6-20.87-9.1-43.25-17.7-70.48-27.2-6.62-2.3-13.29-4.5-20.02-6.7-18.13-6-36.99-11.6-55.91-16.8l-7.31-2.1c-3.36-.9-6.72-1.9-10.19-2.7-24.28-6.3-48.4-11.6-71.68-16.1-2.68-.5-5.42-.9-8.14-1.3l-6.78-1.2c-20.03-3.5-39.89-6.5-58.97-8.9-7.04-.9-14.13-1.8-21.22-2.5-22.82-2.5-43.68-4.2-63.59-5.3l-9.57-.6c-21.81-1.1-41.83-1.6-61.27-1.6-1.16 0-2.36.1-3.52.2-1.42 0-2.84.1-4.26.1-33.79.2-64.32 1.5-93.38 3.8-2.21.1-4.41.4-6.67.7-2.05.2-4.1.4-6.2.7-26.86 2.3-53.61 5.5-79.52 9.4-7.41 1.1-14.82 2.4-22.17 3.7l-7.2 1.2c-21.34 3.7-42.51 7.9-62.96 12.5-9.82 2.2-19.65 4.3-29.37 6.7-21.6 5.4-44.04 11.6-68.58 19.1-2.84.9-5.73 1.7-8.67 2.5-3.26.9-6.52 1.8-9.72 2.9-27.8 9-55.6 19-82.61 29.9-4.52 1.8-8.88 3.7-13.3 5.7l-7.46 3.2c-20.23 8.5-39.99 17.5-58.75 26.6-8.62 4.2-16.97 8.5-25.38 12.8-17.08 8.9-34.63 18.6-52.08 28.9l-8.14 4.8c-4.63 2.6-9.26 5.3-13.72 8.1-25.54 15.8-47.56 30.6-67.32 45.2-87.07 64.5-164.43 139.6-236.48 229.8-45.66 57.1-88.96 120.3-132.47 193.2m2486.21-3002.1c-5.36-5.1-10.72-10.2-16.23-15.2-21.55-19.6-40.31-35.2-59.13-49.2-12.56-9.2-26.64-18.7-43.08-28.9-3.47-2.2-7.1-4.3-10.73-6.4l-3.36-2c-10.78-6.3-21.81-12.5-33.16-18.4-5.46-2.8-10.98-5.6-16.45-8.3-12.19-5.9-24.59-11.5-37.31-16.8l-5.99-2.7c-2.52-1.1-5.05-2.2-7.67-3.2-17.71-7.1-35.47-13.5-52.82-19.1-2.25-.7-4.57-1.4-6.88-2.1l-5.31-1.6c-15.39-4.6-29.64-8.5-43.51-12-6.31-1.5-12.67-2.9-19.07-4.4-13.19-3-26.54-5.5-40-7.9l-5.36-.9c-4.57-.8-9.19-1.6-13.82-2.3-17.08-2.5-34.05-4.6-50.39-6l-8.78-.9c-18.92-1.5-38.99-2.3-59.8-2.4l-4.94-.2c-1.63 0-3.31.1-4.94.2-1.74.1-3.42.3-5.2.3-17.98.2-36.26 1-54.39 2.5l-4.99.4c-4.05.3-8.1.6-12.2 1-23.65 2.4-45.4 5.5-66.47 9.6-1.74.3-3.47.7-5.16 1.1l-4.62 1c-18.6 3.9-37.89 8.7-57.28 14.3-5.94 1.8-11.77 3.4-17.7 5.3-25.23 8.1-45.83 15.6-65.12 23.8-131.06 56.3-238.47 149.3-310.63 269.2-27.95 46.4-50.7 96.9-67.63 150-5.88 18.5-11.3 38.8-16.55 62.3-6.62 29.6-11.46 58.9-14.29 87.1l-1.06 9.9c-4.52 50.7-3.83 100.8 2 148.9 2.79 22.8 7.04 47 12.61 71.8 1.58 7.1 3.58 14.2 5.63 21.3 1.15 4.2 2.31 8.3 3.41 12.3l2.74 10.3c2.52 9.7 5.09 19.4 8.19 29.2 4.47 13.9 9.88 28.4 15.14 42.4l5.46 14.8c2 5.7 4.05 11.4 6.42 17.2 7.72 19.2 16.81 39 25.43 57.7l3.47 7.6c1.52 3.4 2.99 6.7 4.62 10.1 9.2 19.1 20.03 40 34.11 65.7l5.67 10.7c12.09 21.7 25.65 44.7 42.73 72.2l3.1 5c15.34 24.6 31.95 49.8 51.66 78.5 17.65 25.5 37.04 52.3 57.75 79.8 176.72 234.2 430.12 484.9 732.81 725 198.02 157.1 434.6 240.1 684.13 240.1 473.9 0 892.7-300.9 1042.1-748.7 170.2-510.3 254.4-955.7 243.4-1288.1-1.1-34.2-3.5-68.5-7.3-105-.6-5.9-1.4-11.5-2.1-17.2l-1-7.4c-3.2-26-7.1-50.8-11.5-73.6-1.8-9.6-3.8-19.2-5.9-28.6-4.5-20.6-10.1-41.7-17-64.4l-2.5-8.6c-1.6-5.5-3.2-11-5-16.3-10.3-30.5-20.7-56.2-31.9-78.7-6.4-13.1-13.7-26.7-22.3-41.6-1.7-3-3.6-5.9-5.5-8.7l-2.3-3.9c-5.8-9.4-11.6-18.7-17.8-28-2.6-3.9-5.4-7.6-8-11.4l-2.6-3.6c-5.9-8.3-11.9-16.5-18.2-24.6-4-5.2-8.2-10.3-12.4-15.4-6.4-7.8-12.9-15.3-19.6-23-4.5-5-9-9.9-13.6-14.8-7-7.5-14.4-14.8-21.7-22.1l-2.8-2.7c-3.8-3.7-7.5-7.4-11.4-11-8.1-7.4-16.4-14.6-24.8-21.7l-5.4-4.6c-2.8-2.4-5.6-4.8-8.4-7.1-10.4-8.5-21.2-16.4-32.1-24.3-1.5-1-3-2.2-4.5-3.3-1.5-1.2-3-2.4-4.6-3.5-14.2-9.7-28.9-19.2-43.9-28.1-1.9-1.1-3.9-2.2-5.9-3.2l-4.9-2.7c-13.9-7.9-24.8-13.7-35.3-18.9-3.5-1.7-7-3.2-10.4-4.8l-6.8-3.1c-10.4-4.7-20.8-9.3-31.4-13.5-5.6-2.2-11.1-4.3-16.8-6.3l-2.9-1.1c-10.3-3.6-20.7-7.2-31.2-10.5-7.1-2.1-14.1-4.1-21.2-6-10.6-2.9-21.3-5.4-33-7.9-7-1.5-13.9-3-21-4.3-11.3-2.1-22.8-3.6-34.4-5.1l-3.2-.4c-6-.8-12-1.6-18.1-2.2-13.6-1.3-27.5-1.8-39.2-2.1l-7.1-.4c-3.6-.2-7.3-.4-11.1-.4l-3.7-.1c-9.5 0-19.2.5-28.8 1.1l-8.2.5c-2.9.1-5.6.2-8.4.3-4 .1-7.9.2-12 .6-21.4 1.8-42.4 4.4-62.6 8-17.3 3-35.1 6.8-52.7 11.3-207.7 52.9-400.9 205.6-504.19 398.5-14.5 27.1-27.01 54.7-37.2 82.1-7.99 21.5-15.19 44.9-22.7 73.5-1.84 7.3-3.52 14.4-5.15 21.5-4.31 18.6-8.04 37.7-11.04 56.7l-1.1 6.4c-.74 4.1-1.47 8.2-2 12.3-2.58 18.5-4.57 38-6.04 58 18.55 81.3 35.63 153.5 52.23 220.7 58.39 236.8 124.79 478.4 197.39 717.9 12.6 36.9-7.4 63.4-32.8 73.3-26.4 10.2-61.2 3.2-76.1-30.6-93.75-223.9-179.4-462.9-254.65-710.3-18.4-60.4-37.05-124.7-57.33-197.5l-4.11-5.4-3.89-5.2c-14.29-19.1-28.16-36.5-42.45-53-2.37-2.8-4.94-5.4-7.47-8.1l-5.67-6.2c-12.4-13.7-25.86-27.6-39.89-41.1m3382.96 2414.8c-16.8-12-32.1-22.8-47.9-33.1-12-7.8-24.2-15.2-36.6-22.5-37.3-22.5-68.7-39.6-98.5-53.8l-.5-.1c-18.4-8.8-38.2-17.3-60.4-26.1-3.9-1.6-7.9-3-11.9-4.4l-8.5-3.1c-14.1-5.3-28.4-10.5-43-15.2-6.6-2.2-13.4-4.2-20.2-6.2l-5.1-1.4c-13.6-4.1-27.2-8-41.1-11.6-9.1-2.4-18.3-4.6-27.5-6.7-13.7-3.2-27.6-6.2-41.6-8.9-9.5-1.9-18.9-3.7-28.5-5.4-14.3-2.4-28.7-4.5-43.2-6.5l-8-1.1c-6.8-.9-13.6-1.9-20.4-2.7-15.6-1.7-31.2-3.1-47-4.2l-8.8-.7c-5.7-.6-11.4-1-17.3-1.4-17.1-1-35.7-1.6-58.6-1.9-2.4 0-4.8-.1-7.2-.2-2.7-.1-5.4-.2-8.2-.2h-1.7c-2.7 0-5.3.1-7.9.2-2.5.1-5 .3-7.5.3-26.5.3-47.9 1-67.4 2.2-6.2.4-12.4 1-18.5 1.6l-11.4 1.1c-16.6 1.4-36 3.1-55 5.6-8.3 1-16.6 2.3-25 3.6l-8.5 1.3c-17.2 2.7-34.4 5.6-51.5 8.9-10.9 2.2-21.8 4.6-32.7 7l-2.2.5c-16.7 3.8-33.3 7.9-49.9 12.4q-17.4 4.65-34.8 9.9c-15 4.4-30.7 9.6-49.4 16.1l-2.7.9c-10.4 3.7-20.8 7.3-31.1 11.2-17.5 6.7-35 14.2-49.8 20.6l-8.8 3.8c-7.5 3.3-15.1 6.5-22.6 10.1-18.6 8.7-37.2 18.6-53.1 27.2-3.4 1.8-6.8 3.6-10.3 5.3-5.2 2.7-10.4 5.4-15.5 8.2-27.6 15.7-52.4 31.3-76.1 47.4-457 312.5-533.3 846.5-406.1 1237.2 74.7 229.2 241 471.9 494.4 721.6l-4.8 4.7 6.9-2.7c70.6 69.5 149.3 140.6 234 211.3 7.4 6.3 15 12.4 22.5 18.6 326.4 269.2 732.5 529.8 1207.1 774.7 22.1 11.4 45.7 22.8 74.4 35.7 18.5 8.4 37.1 16.4 55.9 24.3.2.1.4.1.6.2 212.1 88.6 433.7 133.5 658.5 133.5 859.1 0 1589.2-641.1 1698.4-1491.2 161.6-1258.7 67.8-2191.6-263.8-2626.4-.4-.4-.6-.7-.9-1.1-12.7-16.5-27.1-34.1-44.1-53.6-3.3-3.7-6.7-7.4-10-11.1l-4.1-4.4c-11.5-12.8-23.8-25.7-36.4-38.4l-4.3-4.4c-3.6-3.5-7.1-7.1-10.8-10.6-19.9-19.3-37-34.9-53.2-48.8-.2 0-1.5-1.1-1.6-1.1-16.2-13.8-34.2-28.1-56.5-44.9-3.5-2.6-7.1-5.1-10.6-7.6l-7.3-5.3c-15.9-11.3-30.8-21.5-45.9-31.3l-5.5-3.6c-4.3-2.8-8.6-5.6-13-8.3-23.6-14.7-45-27.1-65.4-38l3.2-5.9-5.5 4.7c-20.2-10.6-41.9-21.2-66.3-32.2-5.5-2.4-11.1-4.8-16.6-7.1l-4.3-1.8c-17.2-7.4-35.2-14.4-53.5-21.1l-4.1-1.5c-5.6-2.1-11.3-4.3-17-6.2-27.2-9.3-51.7-16.8-74.6-22.8l-3.8-.9c-21.9-5.7-45.8-10.9-73.2-16-6.1-1.1-12.3-2.1-18.3-3l-5-.9c-18.9-3-38.2-5.5-59.1-7.6l-7.1-.8c-5.3-.6-10.6-1.1-16-1.5-42.9-3.5-79.5-4.3-118-2l-14.4.9c-5.3.2-10.5.4-15.6.5-8.5.3-16.9.6-25.5 1.3-13.2 1.3-26.8 3.4-40 5.5l-14.2 2.1c-5 .7-10 1.3-15 2-8.2 1-16.4 2-24.8 3.5-16 3-32.7 7.2-48.8 11.3l-11.7 2.9c-4.9 1.2-9.7 2.2-14.6 3.3-6.6 1.4-13.3 2.9-20 4.8-32.7 9.3-65.1 20.1-96.2 32-25.7 9.9-51.8 21.1-77.3 33.3-73.8 35-144.9 78.8-211.3 129.9-63.4 49-123.1 105-177.4 166.7-52.1 59.3-99.3 123.7-140.1 191.4-79.6 132.1-133.3 274.2-155.6 411-4.3 26.6-7.7 55.2-10.6 89.9-.7 7.3-1.2 14.6-1.7 22-2.3 33-3.3 61.7-3.3 87.7.3 111.6 15.3 228.1 45.3 354.9 186.4 398.2 389.9 796.6 604.5 1184.1 16.9 26.9 8.9 62.8-17.6 80.1-9.8 6.4-20.8 9.5-31.8 9.5-19.1 0-37.9-9.4-49.1-26.5-231.4-355.4-448.6-736.5-664-1165.1-81.8-90.6-165.2-165.6-255-229.4m3083.8-5493.1h-1801c29.7 244.8 69.6 499.7 118.7 758 153.1-258.1 412.7-441.1 697.9-490.9 53.1-9.3 106.7-14 159.3-14 344.2 0 667.9 205.7 824.7 524 233.3 473.4 48.6 1273.5-147.5 1861.3-180.5 541.4-686.5 905.2-1259 905.2-301.6 0-587.3-100.2-826.3-289.8-382.6-303.4-1035-899.7-1105.8-1483.1-41.9-346 110.3-778.5 545.1-965.1 120.6-51.8 251.2-78.1 388.2-78.1 193.9 0 386.3 53.6 544 151.3-9.3-40-18.6-80-27.3-120.1-54.1-251.1-98.7-506.4-132.6-758.7h-2119.6c60.3 1618.4 468.3 3322.2 1212.7 5064.9.7-5.2 1.5-10.4 2.3-15.6 65.5-403.9 370.8-903.5 905.3-1109 149.9-57.7 304.9-87 460.7-87 405.5 0 798.9 198.1 1052.2 529.7 497.8 652 407.5 2031.1 309.4 2795.1-123.8 963.9-951.5 1690.8-1925.2 1690.8-311.6 0-612.5-73.8-894.3-219.1-658.4-339.8-1803.1-1033.3-2072.6-1860.6-153.6-471.8-60.3-1117.6 494.5-1496.9 234.8-160.5 518.6-245.3 820.7-245.3 217.4 0 427.1 44.9 606.3 129.9 35.3 16.8 70.5 35.3 104.8 55.2-66.1-143.8-125.5-277.1-181.3-406.8-708.2-1674-1076.2-3297.4-1094-4825.3H9605.32c-72.99 830.2-19.33 1728.1 159.39 2669.2 153.08-258.1 412.69-441.1 697.99-491 53.1-9.3 106.7-13.9 159.3-13.9 344.1 0 667.9 205.6 824.7 524 233.3 473.4 48.5 1273.5-147.5 1861.3-180.6 541.3-686.5 905.1-1259 905.1-301.66 0-587.38-100.1-826.33-289.7-382.62-303.5-1035.03-899.7-1105.76-1483.2-41.99-345.9 110.25-778.5 545-965.1 120.65-51.7 251.29-78 388.24-78 193.8 0 386.3 53.6 544 151.2-9.3-39.9-18.55-79.9-27.33-120-202.53-941.5-259.17-1839.8-168.52-2669.9H7446.07c341.43 1697 270.43 3614.4-205.37 5547 29.38-25.7 59.91-50.3 91.13-73.4 234.85-173.9 550.83-273.6 867.03-273.6 196.22 0 383.09 37.5 555.35 111.5 617.68 265.1 833.87 880.7 774.13 1373.2-104.74 863.8-1094.11 1765.2-1674.53 2225.6-349.67 277.4-767.65 424-1208.77 424h-.1c-837.5-.1-1577.57-532.1-1841.63-1323.8-243.73-730.6-598.5-2066.2-235.9-2802.1 169.69-344.4 578.58-746.5 1172.45-746.5 74.68 0 150.93 6.7 226.55 19.9 564.13 98.6 960.1 529.9 1102.3 913.5 1.73 4.8 3.36 9.4 4.99 14.1 26.43-127.1 47.87-234.2 67.05-335.3 347.15-1848.6 385.2-3555.8 113.09-5074.1H6052.01c-126.12 456.9-293.23 914.8-496.81 1361.2 116.82-45.9 246.57-70.1 376.37-70.1 215.61 0 418.51 60.8 586.77 175.9 400.18 273.5 467.65 738.6 357.09 1078.2-187.08 574.4-965.2 1047.3-1412.35 1278.1-197.7 102-408.9 153.7-627.82 153.7-683.68-.1-1264.84-510.5-1351.76-1187.3-81.35-633.2-109.2-1478.6 220.03-1909.9 182.14-238.5 465.39-380.9 757.73-380.9 112.61 0 224.49 21 332.54 62.7 281.87 108.4 508.53 348.3 609.32 643.9l5.36-13.3c5.2-12.7 10.35-25.3 15.39-38 153.14-388.8 284.04-777.1 389.09-1154.2H3539.62c-674.38 0-1223-526.2-1223-1173V9896.1c0-646.8 548.62-1173 1223-1173h120.13c-31.37-481.5-80.24-1433.7-59.32-2451.5 39.46-1916.8 306-3125.2 792.2-3591.6C5494.66 1622.9 7514.55 991.801 9795.71 991.801c2281.19 0 4301.09 631.099 5403.09 1688.199 486.3 466.4 752.8 1674.8 792.3 3591.6 20.9 1017.8-28 1970-59.4 2451.5h120.2c674.3 0 1223 526.2 1223 1173V11410c0 646.8-548.7 1173-1223 1173"
    style="fill:#7a2822;fill-opacity:1;fill-rule:nonzero;stroke:none" transform="matrix(.13333 0 0 -.13333 0 3052)" />
  <path
    d="M12379.9 6512.1c-191 0-346.5-214.7-346.5-478.5 0-81 15-161.1 43.4-231.7 61-152.2 177.2-246.8 303.1-246.8 191.1 0 346.5 214.6 346.5 478.5 0 19.4-1.1 39.6-3.4 63.4-22.7 236.7-170.2 415.1-343.1 415.1M7211.54 6564.9c-191.02 0-346.46-214.7-346.46-478.5 0-263.9 155.44-478.5 346.46-478.5 191.07 0 346.52 214.6 346.52 478.5 0 263.8-155.45 478.5-346.52 478.5M10681 6696.8c-20.9 10.4-44.7 12.1-66.8 4.6s-40.1-23.1-50.5-44c-10.4-21-11.9-44.6-4.5-66.8 44.8-133.2 67.6-275 67.6-421.5.1-288.9-88.7-559.4-250-761.9-157-196.8-363.4-305.1-581.09-305.2-217.72.1-424.08 108.4-581.05 305.2-161.33 202.5-250.14 473.1-250.03 761.9 0 123.5 16.34 244.3 48.5 359.4 12.98 46.4-14.24 94.8-60.7 107.7-46.66 13.2-94.74-14.3-107.67-60.7-36.53-130.4-55.02-267.1-55.02-406.4.15-328.1 102.47-637.3 288.08-870.8 187.18-235.9 448.73-371.2 717.58-371.2h.63c268.87 0 530.47 135.3 717.67 371.2 185.6 233.6 287.9 542.8 288 870.8 0 165.4-25.8 326-76.8 477.3-7.4 22.2-23 40.1-43.9 50.4"
    style="fill:#7a2822;fill-opacity:1;fill-rule:nonzero;stroke:none" transform="matrix(.13333 0 0 -.13333 0 3052)" />
</svg>
